  0
SECTION
  2
HEADER
  9
$ACADVER
  1
AC1015
  9
$ACADMAINTVER
 70
     6
  9
$DWGCODEPAGE
  3
ANSI_1252
  9
$INSBASE
 10
0.0
 20
0.0
 30
0.0
  9
$EXTMIN
 10
-1.2861842105
 20
-2.9013157895
 30
0.0
  9
$EXTMAX
 10
1.2861842105
 20
0.0
 30
0.0
  9
$LIMMIN
 10
0.0
 20
0.0
  9
$LIMMAX
 10
12.0
 20
9.0
  9
$ORTHOMODE
 70
     0
  9
$REGENMODE
 70
     1
  9
$FILLMODE
 70
     1
  9
$QTEXTMODE
 70
     0
  9
$MIRRTEXT
 70
     1
  9
$LTSCALE
 40
1.0
  9
$ATTMODE
 70
     1
  9
$TEXTSIZE
 40
0.125
  9
$TRACEWID
 40
0.05
  9
$TEXTSTYLE
  7
Standard
  9
$CLAYER
  8
0
  9
$CELTYPE
  6
ByLayer
  9
$CECOLOR
 62
   256
  9
$CELTSCALE
 40
1.0
  9
$DISPSILH
 70
     0
  9
$DIMSCALE
 40
1.0
  9
$DIMASZ
 40
0.13
  9
$DIMEXO
 40
0.05
  9
$DIMDLI
 40
0.38
  9
$DIMRND
 40
0.0
  9
$DIMDLE
 40
0.0
  9
$DIMEXE
 40
0.125
  9
$DIMTP
 40
0.0
  9
$DIMTM
 40
0.0
  9
$DIMTXT
 40
0.125
  9
$DIMCEN
 40
0.09
  9
$DIMTSZ
 40
0.0
  9
$DIMTOL
 70
     0
  9
$DIMLIM
 70
     0
  9
$DIMTIH
 70
     1
  9
$DIMTOH
 70
     1
  9
$DIMSE1
 70
     0
  9
$DIMSE2
 70
     0
  9
$DIMTAD
 70
     0
  9
$DIMZIN
 70
     0
  9
$DIMBLK
  1

  9
$DIMASO
 70
     1
  9
$DIMSHO
 70
     1
  9
$DIMPOST
  1

  9
$DIMAPOST
  1

  9
$DIMALT
 70
     0
  9
$DIMALTD
 70
     2
  9
$DIMALTF
 40
25.4
  9
$DIMLFAC
 40
1.0
  9
$DIMTOFL
 70
     0
  9
$DIMTVP
 40
0.0
  9
$DIMTIX
 70
     0
  9
$DIMSOXD
 70
     0
  9
$DIMSAH
 70
     0
  9
$DIMBLK1
  1

  9
$DIMBLK2
  1

  9
$DIMSTYLE
  2
Standard
  9
$DIMCLRD
 70
     0
  9
$DIMCLRE
 70
     0
  9
$DIMCLRT
 70
     0
  9
$DIMTFAC
 40
1.0
  9
$DIMGAP
 40
0.06
  9
$DIMJUST
 70
     0
  9
$DIMSD1
 70
     0
  9
$DIMSD2
 70
     0
  9
$DIMTOLJ
 70
     1
  9
$DIMTZIN
 70
     0
  9
$DIMALTZ
 70
     0
  9
$DIMALTTZ
 70
     0
  9
$DIMUPT
 70
     0
  9
$DIMDEC
 70
     2
  9
$DIMTDEC
 70
     2
  9
$DIMALTU
 70
     2
  9
$DIMALTTD
 70
     2
  9
$DIMTXSTY
  7
Standard
  9
$DIMAUNIT
 70
     0
  9
$DIMADEC
 70
     1
  9
$DIMALTRND
 40
0.0
  9
$DIMAZIN
 70
     0
  9
$DIMDSEP
 70
    46
  9
$DIMATFIT
 70
     3
  9
$DIMFRAC
 70
     0
  9
$DIMLDRBLK
  1

  9
$DIMLUNIT
 70
     2
  9
$DIMLWD
 70
    -2
  9
$DIMLWE
 70
    -2
  9
$DIMTMOVE
 70
     0
  9
$LUNITS
 70
     2
  9
$LUPREC
 70
     3
  9
$SKETCHINC
 40
0.1
  9
$FILLETRAD
 40
0.5
  9
$AUNITS
 70
     0
  9
$AUPREC
 70
     1
  9
$MENU
  1
.
  9
$ELEVATION
 40
0.0
  9
$PELEVATION
 40
0.0
  9
$THICKNESS
 40
0.0
  9
$LIMCHECK
 70
     0
  9
$CHAMFERA
 40
0.0
  9
$CHAMFERB
 40
0.0
  9
$CHAMFERC
 40
0.0
  9
$CHAMFERD
 40
0.0
  9
$SKPOLY
 70
     0
  9
$TDCREATE
 40
2457344.457116354
  9
$TDUCREATE
 40
2457344.665449687
  9
$TDUPDATE
 40
2457344.457308044
  9
$TDUUPDATE
 40
2457344.665641377
  9
$TDINDWG
 40
0.0000000116
  9
$TDUSRTIMER
 40
0.0000000116
  9
$USRTIMER
 70
     1
  9
$ANGBASE
 50
0.0
  9
$ANGDIR
 70
     0
  9
$PDMODE
 70
     0
  9
$PDSIZE
 40
-1.0
  9
$PLINEWID
 40
0.0
  9
$SPLFRAME
 70
     0
  9
$SPLINETYPE
 70
     6
  9
$SPLINESEGS
 70
     8
  9
$HANDSEED
  5
AC
  9
$SURFTAB1
 70
     6
  9
$SURFTAB2
 70
     6
  9
$SURFTYPE
 70
     6
  9
$SURFU
 70
     6
  9
$SURFV
 70
     6
  9
$UCSBASE
  2

  9
$UCSNAME
  2

  9
$UCSORG
 10
0.0
 20
0.0
 30
0.0
  9
$UCSXDIR
 10
1.0
 20
0.0
 30
0.0
  9
$UCSYDIR
 10
0.0
 20
1.0
 30
0.0
  9
$UCSORTHOREF
  2

  9
$UCSORTHOVIEW
 70
     0
  9
$UCSORGTOP
 10
0.0
 20
0.0
 30
0.0
  9
$UCSORGBOTTOM
 10
0.0
 20
0.0
 30
0.0
  9
$UCSORGLEFT
 10
0.0
 20
0.0
 30
0.0
  9
$UCSORGRIGHT
 10
0.0
 20
0.0
 30
0.0
  9
$UCSORGFRONT
 10
0.0
 20
0.0
 30
0.0
  9
$UCSORGBACK
 10
0.0
 20
0.0
 30
0.0
  9
$PUCSBASE
  2

  9
$PUCSNAME
  2

  9
$PUCSORG
 10
0.0
 20
0.0
 30
0.0
  9
$PUCSXDIR
 10
1.0
 20
0.0
 30
0.0
  9
$PUCSYDIR
 10
0.0
 20
1.0
 30
0.0
  9
$PUCSORTHOREF
  2

  9
$PUCSORTHOVIEW
 70
     0
  9
$PUCSORGTOP
 10
0.0
 20
0.0
 30
0.0
  9
$PUCSORGBOTTOM
 10
0.0
 20
0.0
 30
0.0
  9
$PUCSORGLEFT
 10
0.0
 20
0.0
 30
0.0
  9
$PUCSORGRIGHT
 10
0.0
 20
0.0
 30
0.0
  9
$PUCSORGFRONT
 10
0.0
 20
0.0
 30
0.0
  9
$PUCSORGBACK
 10
0.0
 20
0.0
 30
0.0
  9
$USERI1
 70
     0
  9
$USERI2
 70
     0
  9
$USERI3
 70
     0
  9
$USERI4
 70
     0
  9
$USERI5
 70
     0
  9
$USERR1
 40
0.0
  9
$USERR2
 40
0.0
  9
$USERR3
 40
0.0
  9
$USERR4
 40
0.0
  9
$USERR5
 40
0.0
  9
$WORLDVIEW
 70
     1
  9
$SHADEDGE
 70
     3
  9
$SHADEDIF
 70
    70
  9
$TILEMODE
 70
     1
  9
$MAXACTVP
 70
    64
  9
$PINSBASE
 10
0.0
 20
0.0
 30
0.0
  9
$PLIMCHECK
 70
     0
  9
$PEXTMIN
 10
1.0000000000E+20
 20
1.0000000000E+20
 30
1.0000000000E+20
  9
$PEXTMAX
 10
-1.0000000000E+20
 20
-1.0000000000E+20
 30
-1.0000000000E+20
  9
$PLIMMIN
 10
0.0
 20
0.0
  9
$PLIMMAX
 10
12.0
 20
9.0
  9
$UNITMODE
 70
     0
  9
$VISRETAIN
 70
     1
  9
$PLINEGEN
 70
     0
  9
$PSLTSCALE
 70
     1
  9
$TREEDEPTH
 70
  3020
  9
$CMLSTYLE
  2
Standard
  9
$CMLJUST
 70
     0
  9
$CMLSCALE
 40
1.0
  9
$PROXYGRAPHICS
 70
     1
  9
$MEASUREMENT
 70
     0
  9
$CELWEIGHT
370
    -1
  9
$ENDCAPS
280
     0
  9
$JOINSTYLE
280
     0
  9
$LWDISPLAY
290
     1
  9
$INSUNITS
 70
     1
  9
$HYPERLINKBASE
  1

  9
$STYLESHEET
  1

  9
$XEDIT
290
     1
  9
$CEPSNTYPE
380
     0
  9
$PSTYLEMODE
290
     1
  9
$FINGERPRINTGUID
  2
{C87ACC7D-090F-4201-8161-E8B347EDB1C6}
  9
$VERSIONGUID
  2
{FAEB1C32-E019-11D5-929B-00C0DF256EC4}
  9
$EXTNAMES
290
     1
  9
$PSVPSCALE
 40
0.0
  9
$OLESTARTUP
290
     0
  0
ENDSEC
  0
SECTION
  2
CLASSES
  0
CLASS
  1
ACDBDICTIONARYWDFLT
  2
AcDbDictionaryWithDefault
  3
ObjectDBX Classes
 90
        0
280
     0
281
     0
  0
CLASS
  1
VISUALSTYLE
  2
AcDbVisualStyle
  3
ObjectDBX Classes
 90
     4095
280
     0
281
     0
  0
CLASS
  1
MATERIAL
  2
AcDbMaterial
  3
ObjectDBX Classes
 90
     1153
280
     0
281
     0
  0
CLASS
  1
SCALE
  2
AcDbScale
  3
ObjectDBX Classes
 90
     1153
280
     0
281
     0
  0
CLASS
  1
SUN
  2
AcDbSun
  3
SCENEOE
 90
     1153
280
     0
281
     0
  0
CLASS
  1
ACDBPLACEHOLDER
  2
AcDbPlaceHolder
  3
ObjectDBX Classes
 90
        0
280
     0
281
     0
  0
CLASS
  1
LAYOUT
  2
AcDbLayout
  3
ObjectDBX Classes
 90
        0
280
     0
281
     0
  0
ENDSEC
  0
SECTION
  2
TABLES
  0
TABLE
  2
VPORT
  5
8
330
0
100
AcDbSymbolTable
 70
     1
  0
VPORT
  5
29
330
8
100
AcDbSymbolTableRecord
100
AcDbViewportTableRecord
  2
*Active
 70
     0
 10
0.0
 20
0.0
 11
1.0
 21
1.0
 12
0.0
 22
-1.4506578947
 13
0.0
 23
0.0
 14
0.5
 24
0.5
 15
0.5
 25
0.5
 16
0.0
 26
0.0
 36
1.0
 17
0.0
 27
0.0
 37
0.0
 40
2.9593421053
 41
0.8866213152
 42
50.0
 43
0.0
 44
0.0
 50
0.0
 51
0.0
 71
     0
 72
   100
 73
     1
 74
     3
 75
     0
 76
     0
 77
     0
 78
     0
281
     0
 65
     1
110
0.0
120
0.0
130
0.0
111
1.0
121
0.0
131
0.0
112
0.0
122
1.0
132
0.0
 79
     0
146
0.0
  0
ENDTAB
  0
TABLE
  2
LTYPE
  5
5
330
0
100
AcDbSymbolTable
 70
     6
  0
LTYPE
  5
14
330
5
100
AcDbSymbolTableRecord
100
AcDbLinetypeTableRecord
  2
ByBlock
 70
     0
  3

 72
    65
 73
     0
 40
0.0
  0
LTYPE
  5
15
330
5
100
AcDbSymbolTableRecord
100
AcDbLinetypeTableRecord
  2
ByLayer
 70
     0
  3

 72
    65
 73
     0
 40
0.0
  0
LTYPE
  5
16
330
5
100
AcDbSymbolTableRecord
100
AcDbLinetypeTableRecord
  2
Continuous
 70
     0
  3
Solid line
 72
    65
 73
     0
 40
0.0
  0
LTYPE
  5
6A
330
5
100
AcDbSymbolTableRecord
100
AcDbLinetypeTableRecord
  2
HIDDEN
 70
     0
  3
Hidden __ __ __ __ __ __ __ __ __ __ __ __ __ __
 72
    65
 73
     2
 40
0.075
 49
0.05
 74
     0
 49
-0.025
 74
     0
  0
LTYPE
  5
6B
330
5
100
AcDbSymbolTableRecord
100
AcDbLinetypeTableRecord
  2
PHANTOM
 70
     0
  3
Phantom ______  __  __  ______  __  __  ______
 72
    65
 73
     6
 40
0.5
 49
0.25
 74
     0
 49
-0.05
 74
     0
 49
0.05
 74
     0
 49
-0.05
 74
     0
 49
0.05
 74
     0
 49
-0.05
 74
     0
  0
LTYPE
  5
6C
330
5
100
AcDbSymbolTableRecord
100
AcDbLinetypeTableRecord
  2
CENTER
 70
     0
  3
Center ____ _ ____ _ ____ _ ____ _ ____ _ ____
 72
    65
 73
     4
 40
0.4
 49
0.25
 74
     0
 49
-0.05
 74
     0
 49
0.05
 74
     0
 49
-0.05
 74
     0
  0
LTYPE
  5
6D
330
5
100
AcDbSymbolTableRecord
100
AcDbLinetypeTableRecord
  2
CENTERX2
 70
     0
  3
Center (2x) ________  __  ________  __  _____
 72
    65
 73
     4
 40
0.8
 49
0.5
 74
     0
 49
-0.1
 74
     0
 49
0.1
 74
     0
 49
-0.1
 74
     0
  0
LTYPE
  5
6E
330
5
100
AcDbSymbolTableRecord
100
AcDbLinetypeTableRecord
  2
DOT2
 70
     0
  3
Dot (.5x) ........................................
 72
    65
 73
     2
 40
0.025
 49
0.0
 74
     0
 49
-0.025
 74
     0
  0
ENDTAB
  0
TABLE
  2
LAYER
  5
2
330
0
100
AcDbSymbolTable
 70
     1
  0
LAYER
  5
10
330
2
100
AcDbSymbolTableRecord
100
AcDbLayerTableRecord
  2
0
 70
     0
 62
     7
  6
Continuous
370
    -3
390
F
  0
ENDTAB
  0
TABLE
  2
STYLE
  5
3
330
0
100
AcDbSymbolTable
 70
     2
  0
STYLE
  5
11
330
3
100
AcDbSymbolTableRecord
100
AcDbTextStyleTableRecord
  2
Standard
 70
     0
 40
0.0
 41
1.0
 50
0.0
 71
     0
 42
0.125
  3
txt
  4

  0
STYLE
  5
A9
330
3
100
AcDbSymbolTableRecord
100
AcDbTextStyleTableRecord
  2
SLDTEXTSTYLE0
 70
     0
 40
0.0
 41
0.7
 50
0.0
 71
     0
 42
0.125
  3
TXT
  4

  0
ENDTAB
  0
TABLE
  2
VIEW
  5
6
330
0
100
AcDbSymbolTable
 70
     0
  0
ENDTAB
  0
TABLE
  2
UCS
  5
7
330
0
100
AcDbSymbolTable
 70
     0
  0
ENDTAB
  0
TABLE
  2
APPID
  5
9
330
0
100
AcDbSymbolTable
 70
     1
  0
APPID
  5
12
330
9
100
AcDbSymbolTableRecord
100
AcDbRegAppTableRecord
  2
ACAD
 70
     0
  0
ENDTAB
  0
TABLE
  2
DIMSTYLE
  5
A
330
0
100
AcDbSymbolTable
 70
     1
100
AcDbDimStyleTable
  0
DIMSTYLE
105
27
330
A
100
AcDbSymbolTableRecord
100
AcDbDimStyleTableRecord
  2
Standard
 70
     0
178
     0
340
11
  0
ENDTAB
  0
TABLE
  2
BLOCK_RECORD
  5
1
330
0
100
AcDbSymbolTable
 70
     1
  0
BLOCK_RECORD
  5
1F
330
1
100
AcDbSymbolTableRecord
100
AcDbBlockTableRecord
  2
*Model_Space
340
22
  0
BLOCK_RECORD
  5
1B
330
1
100
AcDbSymbolTableRecord
100
AcDbBlockTableRecord
  2
*Paper_Space
340
1E
  0
BLOCK_RECORD
  5
23
330
1
100
AcDbSymbolTableRecord
100
AcDbBlockTableRecord
  2
*Paper_Space0
340
26
  0
ENDTAB
  0
ENDSEC
  0
SECTION
  2
BLOCKS
  0
BLOCK
  5
20
330
1F
100
AcDbEntity
  8
0
100
AcDbBlockBegin
  2
*Model_Space
 70
     0
 10
0.0
 20
0.0
 30
0.0
  3
*Model_Space
  1
*Model_Space
  0
ENDBLK
  5
21
330
1F
100
AcDbEntity
  8
0
100
AcDbBlockEnd
  0
BLOCK
  5
1C
330
1B
100
AcDbEntity
 67
     1
  8
0
100
AcDbBlockBegin
  2
*Paper_Space
 70
     0
 10
0.0
 20
0.0
 30
0.0
  3
*Paper_Space
  1
*Paper_Space
  0
ENDBLK
  5
1D
330
1B
100
AcDbEntity
 67
     1
  8
0
100
AcDbBlockEnd
  0
BLOCK
  5
24
330
23
100
AcDbEntity
  8
0
100
AcDbBlockBegin
  2
*Paper_Space0
 70
     0
 10
0.0
 20
0.0
 30
0.0
  3
*Paper_Space0
  1
*Paper_Space0
  0
ENDBLK
  5
25
330
23
100
AcDbEntity
  8
0
100
AcDbBlockEnd
  0
ENDSEC
  0
SECTION
  2
ENTITIES
  0
CIRCLE
  5
6F
330
1F
100
AcDbEntity
  8
0
  6
Continuous
 62
     7
100
AcDbCircle
 10
0.0
 20
-1.4506578947
 30
0.0
 40
0.8
  0
LINE
  5
71
330
1F
100
AcDbEntity
  8
0
  6
Continuous
 62
     7
100
AcDbLine
 10
0.0
 20
-0.6506578947
 30
0.0
 11
-0.2428574417
 21
-1.2400328255
 31
0.0
  0
LINE
  5
72
330
1F
100
AcDbEntity
  8
0
  6
Continuous
 62
     7
100
AcDbLine
 10
-0.2428574417
 20
-1.2400328255
 30
0.0
 11
-0.7717752783
 21
-1.2400328255
 31
0.0
  0
LINE
  5
73
330
1F
100
AcDbEntity
  8
0
  6
Continuous
 62
     7
100
AcDbLine
 10
-0.7717752783
 20
-1.2400328255
 30
0.0
 11
-0.3845144498
 21
-1.5382581057
 31
0.0
  0
LINE
  5
74
330
1F
100
AcDbEntity
  8
0
  6
Continuous
 62
     7
100
AcDbLine
 10
-0.3845144498
 20
-1.5382581057
 30
0.0
 11
-0.5768295733
 21
-2.0049751715
 31
0.0
  0
LINE
  5
75
330
1F
100
AcDbEntity
  8
0
  6
Continuous
 62
     7
100
AcDbLine
 10
-0.5768295733
 20
-2.0049751715
 30
0.0
 11
0.0
 21
-1.764800021
 31
0.0
  0
LINE
  5
76
330
1F
100
AcDbEntity
  8
0
  6
Continuous
 62
     7
100
AcDbLine
 10
0.5768295733
 20
-2.0049751715
 30
0.0
 11
0.0
 21
-1.764800021
 31
0.0
  0
LINE
  5
77
330
1F
100
AcDbEntity
  8
0
  6
Continuous
 62
     7
100
AcDbLine
 10
0.3845144498
 20
-1.5382581057
 30
0.0
 11
0.5768295733
 21
-2.0049751715
 31
0.0
  0
LINE
  5
78
330
1F
100
AcDbEntity
  8
0
  6
Continuous
 62
     7
100
AcDbLine
 10
0.7717752783
 20
-1.2400328255
 30
0.0
 11
0.3845144498
 21
-1.5382581057
 31
0.0
  0
LINE
  5
79
330
1F
100
AcDbEntity
  8
0
  6
Continuous
 62
     7
100
AcDbLine
 10
0.2428574417
 20
-1.2400328255
 30
0.0
 11
0.7717752783
 21
-1.2400328255
 31
0.0
  0
LINE
  5
7A
330
1F
100
AcDbEntity
  8
0
  6
Continuous
 62
     7
100
AcDbLine
 10
0.0
 20
-0.6506578947
 30
0.0
 11
0.2428574417
 21
-1.2400328255
 31
0.0
  0
LWPOLYLINE
  5
7B
330
1F
100
AcDbEntity
  8
0
  6
Continuous
 62
     7
100
AcDbPolyline
 90
       68
 70
   128
 43
0.0
 10
-0.3983273985
 20
-0.4297042628
 10
-0.4157924888
 20
-0.3889150871
 10
-0.4157924888
 20
-0.3889150871
 10
-0.4171511844
 20
-0.3861693896
 10
-0.4187929416
 20
-0.3837916722
 10
-0.4206894543
 20
-0.3817819349
 10
-0.4228407224
 20
-0.3801401776
 10
-0.4252184398
 20
-0.3788380943
 10
-0.4277943003
 20
-0.3779039911
 10
-0.4305966101
 20
-0.377366174
 10
-0.4335687569
 20
-0.3771680309
 10
-0.4335687569
 20
-0.3771680309
 10
-0.4381826609
 20
-0.3771680309
 10
-0.4381826609
 20
-0.3771680309
 10
-0.4381826609
 20
-0.4297042628
 10
-0.4381826609
 20
-0.4297042628
 10
-0.4617333855
 20
-0.4297042628
 10
-0.4617333855
 20
-0.4297042628
 10
-0.4617333855
 20
-0.3047042628
 10
-0.4617333855
 20
-0.3047042628
 10
-0.4246523166
 20
-0.3047042628
 10
-0.4246523166
 20
-0.3047042628
 10
-0.4195005956
 20
-0.3048174874
 10
-0.4146036301
 20
-0.3051288552
 10
-0.4099614199
 20
-0.3056949784
 10
-0.4055739652
 20
-0.3064592447
 10
-0.4014412659
 20
-0.3074782664
 10
-0.3976199344
 20
-0.3087803497
 10
-0.3941382768
 20
-0.3103938008
 10
-0.3909679869
 20
-0.3122903135
 10
-0.3881090648
 20
-0.3144698878
 10
-0.3856181228
 20
-0.3169608298
 10
-0.3834668547
 20
-0.3197631396
 10
-0.3816552605
 20
-0.3228768171
 10
-0.3802399525
 20
-0.3263301686
 10
-0.3792209308
 20
-0.3301231939
 10
-0.3785981953
 20
-0.3343125055
 10
-0.3784000522
 20
-0.3388697972
 10
-0.3784000522
 20
-0.3388697972
 10
-0.378541583
 20
-0.3421816179
 10
-0.3789378692
 20
-0.3452952954
 10
-0.379617217
 20
-0.348239136
 10
-0.3805513203
 20
-0.3509848334
 10
-0.3817118728
 20
-0.3535323878
 10
-0.3830988746
 20
-0.3559101052
 10
-0.3847123257
 20
-0.3580896795
 10
-0.3865522261
 20
-0.3600994168
 10
-0.3885619634
 20
-0.361911011
 10
-0.3907132315
 20
-0.3635527682
 10
-0.3930626427
 20
-0.3650246885
 10
-0.3955535848
 20
-0.3662984657
 10
-0.3981577514
 20
-0.3674024059
 10
-0.4008751427
 20
-0.368308203
 10
-0.4036774525
 20
-0.3690441632
 10
-0.4065929869
 20
-0.3696102863
 10
-0.4065929869
 20
-0.3696102863
 10
-0.4043568003
 20
-0.3702896342
 10
-0.4022055322
 20
-0.3713935744
 10
-0.4001391826
 20
-0.3728938008
 10
-0.3981860576
 20
-0.3747903135
 10
-0.3962895449
 20
-0.3771397247
 10
-0.3943647261
 20
-0.3799986468
 10
-0.3924682134
 20
-0.3833387737
 10
-0.3905717007
 20
-0.3871601052
 10
-0.3905717007
 20
-0.3871601052
 10
-0.370729083
 20
-0.4297042628
 10
-0.370729083
 20
-0.4297042628
 10
-0.3983275884
 20
-0.4297042628
  0
LWPOLYLINE
  5
7C
330
1F
100
AcDbEntity
  8
0
  6
Continuous
 62
     7
100
AcDbPolyline
 90
       38
 70
   128
 43
0.0
 10
-0.4037622157
 20
-0.3414173516
 10
-0.4038472895
 20
-0.3392660834
 10
-0.4041303511
 20
-0.3372563461
 10
-0.4046115558
 20
-0.3354164458
 10
-0.4052625974
 20
-0.3337180762
 10
-0.4060834761
 20
-0.3322178497
 10
-0.407130804
 20
-0.3308308479
 10
-0.4083479688
 20
-0.3296136831
 10
-0.4097349706
 20
-0.3285663552
 10
-0.4113201156
 20
-0.3276322519
 10
-0.4130750974
 20
-0.3268396795
 10
-0.4150282224
 20
-0.3261603316
 10
-0.4171794906
 20
-0.3256225146
 10
-0.4195005956
 20
-0.3251979222
 10
-0.4220198438
 20
-0.3248865545
 10
-0.4247372351
 20
-0.3246884113
 10
-0.4276244634
 20
-0.324631799
 10
-0.4276244634
 20
-0.324631799
 10
-0.4381826609
 20
-0.324631799
 10
-0.4381826609
 20
-0.324631799
 10
-0.4381826609
 20
-0.3590520889
 10
-0.4381826609
 20
-0.3590520889
 10
-0.4284170359
 20
-0.3590520889
 10
-0.4284170359
 20
-0.3590520889
 10
-0.4230954779
 20
-0.3587690273
 10
-0.4182834308
 20
-0.3579481487
 10
-0.4160755503
 20
-0.3573254132
 10
-0.414065813
 20
-0.3565328407
 10
-0.4121976065
 20
-0.3556270436
 10
-0.4104992369
 20
-0.3545797157
 10
-0.4089707043
 20
-0.353390857
 10
-0.4076403148
 20
-0.3520604675
 10
-0.4064797623
 20
-0.3506168534
 10
-0.4055173529
 20
-0.3490317084
 10
-0.4047530866
 20
-0.3473050327
 10
-0.4041869634
 20
-0.3454651324
 10
-0.4038755956
 20
-0.3435120074
 10
-0.403762371
 20
-0.3414173516
  0
LWPOLYLINE
  5
7D
330
1F
100
AcDbEntity
  8
0
  6
Continuous
 62
     7
100
AcDbPolyline
 90
       68
 70
   128
 43
0.0
 10
-0.2678926653
 20
-0.3799703407
 10
-0.2680909489
 20
-0.3856032664
 10
-0.2686853782
 20
-0.3909531305
 10
-0.2697044
 20
-0.3961048516
 10
-0.2710914018
 20
-0.400973511
 10
-0.2728746898
 20
-0.4055591088
 10
-0.2749976518
 20
-0.4098050327
 10
-0.2774885938
 20
-0.4137112827
 10
-0.2803192098
 20
-0.4172778588
 10
-0.2834894996
 20
-0.4204764548
 10
-0.2869994634
 20
-0.4233070708
 10
-0.2908774072
 20
-0.4257414005
 10
-0.295095025
 20
-0.4278077501
 10
-0.2996240105
 20
-0.4294212012
 10
-0.3044360576
 20
-0.4305817537
 10
-0.3095877786
 20
-0.4312894077
 10
-0.3150225612
 20
-0.431515857
 10
-0.3150225612
 20
-0.431515857
 10
-0.3202025884
 20
-0.4313177139
 10
-0.325099554
 20
-0.4307232845
 10
-0.329713458
 20
-0.4297608751
 10
-0.3340443003
 20
-0.4283738733
 10
-0.338063775
 20
-0.4265905853
 10
-0.3417718819
 20
-0.4244393171
 10
-0.345168621
 20
-0.4218917628
 10
-0.3482539924
 20
-0.4189479222
 10
-0.3509996898
 20
-0.4156077954
 10
-0.3534057134
 20
-0.4118996885
 10
-0.355472063
 20
-0.4077669892
 10
-0.3571987388
 20
-0.4032663099
 10
-0.3585574344
 20
-0.3983693443
 10
-0.3595198438
 20
-0.3930760925
 10
-0.360085967
 20
-0.3873865545
 10
-0.3602841101
 20
-0.3813290363
 10
-0.3602841101
 20
-0.3813290363
 10
-0.360085967
 20
-0.3756678045
 10
-0.3594632315
 20
-0.3702896342
 10
-0.3584725159
 20
-0.3651662193
 10
-0.357057208
 20
-0.3602975599
 10
-0.3552456138
 20
-0.3557402682
 10
-0.3530943456
 20
-0.3515226505
 10
-0.3506034036
 20
-0.3476447066
 10
-0.3477444815
 20
-0.3441347429
 10
-0.3445458855
 20
-0.340964453
 10
-0.3409793094
 20
-0.3381904494
 10
-0.3371296717
 20
-0.3357844258
 10
-0.332912054
 20
-0.3337463824
 10
-0.3283830685
 20
-0.3321329313
 10
-0.3235993275
 20
-0.3309723787
 10
-0.3185042188
 20
-0.3302930309
 10
-0.3131543547
 20
-0.3300665816
 10
-0.3131543547
 20
-0.3300665816
 10
-0.3079460214
 20
-0.3302647247
 10
-0.3030207496
 20
-0.3308591541
 10
-0.2983785395
 20
-0.3318781758
 10
-0.2940476971
 20
-0.3332651776
 10
-0.2900282224
 20
-0.3350484657
 10
-0.2862918094
 20
-0.33722804
 10
-0.2829233764
 20
-0.3398039005
 10
-0.2798380051
 20
-0.3427760472
 10
-0.2770923076
 20
-0.346116174
 10
-0.274686284
 20
-0.3498525871
 10
-0.2726482406
 20
-0.3539569802
 10
-0.270949871
 20
-0.3584293534
 10
-0.2696194815
 20
-0.3632697066
 10
-0.2686570721
 20
-0.36847804
 10
-0.2680909489
 20
-0.3740260472
 10
-0.2678928058
 20
-0.3799703407
  0
LWPOLYLINE
  5
7E
330
1F
100
AcDbEntity
  8
0
  6
Continuous
 62
     7
100
AcDbPolyline
 90
       64
 70
   128
 43
0.0
 10
-0.2914433932
 20
-0.3805364639
 10
-0.2915284489
 20
-0.3768566632
 10
-0.2918115105
 20
-0.3734033117
 10
-0.2922361029
 20
-0.3701764095
 10
-0.2928588384
 20
-0.3672042628
 10
-0.293679717
 20
-0.3644585653
 10
-0.2946421264
 20
-0.3619676233
 10
-0.295802679
 20
-0.3597031305
 10
-0.2971330685
 20
-0.3576650871
 10
-0.2986332949
 20
-0.3558534929
 10
-0.3003033583
 20
-0.3542966541
 10
-0.3021432587
 20
-0.3529945708
 10
-0.304152996
 20
-0.3519189367
 10
-0.3063325703
 20
-0.3510697519
 10
-0.3086819815
 20
-0.3504753226
 10
-0.3112012297
 20
-0.3501073425
 10
-0.3138903148
 20
-0.3499941179
 10
-0.3138903148
 20
-0.3499941179
 10
-0.3168341554
 20
-0.3501356487
 10
-0.3195515467
 20
-0.3505885472
 10
-0.3220424888
 20
-0.3513528135
 10
-0.3243069815
 20
-0.3524001414
 10
-0.3263733311
 20
-0.3537022247
 10
-0.3282132315
 20
-0.3552590635
 10
-0.3299116011
 20
-0.3570140454
 10
-0.3313835214
 20
-0.3590237827
 10
-0.3326856047
 20
-0.361203357
 10
-0.3337895449
 20
-0.3635527682
 10
-0.3347236482
 20
-0.3661003226
 10
-0.3354596083
 20
-0.3688177139
 10
-0.3364220177
 20
-0.3745921704
 10
-0.3367333855
 20
-0.380734607
 10
-0.3367333855
 20
-0.380734607
 10
-0.336648467
 20
-0.3844427139
 10
-0.3363370993
 20
-0.3879243715
 10
-0.3358842007
 20
-0.3911795798
 10
-0.3352048529
 20
-0.3941800327
 10
-0.3343556681
 20
-0.3969540363
 10
-0.333280034
 20
-0.3994732845
 10
-0.3320628692
 20
-0.4017660834
 10
-0.3306192551
 20
-0.4038324331
 10
-0.3290341101
 20
-0.4056440273
 10
-0.3272791282
 20
-0.4072291722
 10
-0.3254109217
 20
-0.4085595617
 10
-0.3233728782
 20
-0.4096351958
 10
-0.3212216101
 20
-0.4104843805
 10
-0.3189288112
 20
-0.4111071161
 10
-0.3164661753
 20
-0.4114750961
 10
-0.3138903148
 20
-0.4115883208
 10
-0.3138903148
 20
-0.4115883208
 10
-0.3110596989
 20
-0.41144679
 10
-0.3084555322
 20
-0.4109938914
 10
-0.3060212025
 20
-0.4102579313
 10
-0.3037850159
 20
-0.4092389095
 10
-0.3017469724
 20
-0.4079368262
 10
-0.2998787659
 20
-0.4064082936
 10
-0.2982653148
 20
-0.4046533117
 10
-0.2968217007
 20
-0.4026718805
 10
-0.2955479235
 20
-0.4004923063
 10
-0.2944722895
 20
-0.3981145889
 10
-0.2935381862
 20
-0.3955387284
 10
-0.2928022261
 20
-0.3927930309
 10
-0.2917832043
 20
-0.3868770436
 10
-0.2914435304
 20
-0.3805364639
  0
LWPOLYLINE
  5
7F
330
1F
100
AcDbEntity
  8
0
  6
Continuous
 62
     7
100
AcDbPolyline
 90
       58
 70
   128
 43
0.0
 10
-0.1591970543
 20
-0.3792626867
 10
-0.1594236029
 20
-0.3857447972
 10
-0.160159563
 20
-0.3918023153
 10
-0.1613484217
 20
-0.3973786287
 10
-0.1630467913
 20
-0.4025020436
 10
-0.1651414471
 20
-0.4072008661
 10
-0.1676323891
 20
-0.4114750961
 10
-0.1704913112
 20
-0.4153247338
 10
-0.1737182134
 20
-0.4187780853
 10
-0.1772847895
 20
-0.4218068443
 10
-0.1811910395
 20
-0.424411011
 10
-0.1853803511
 20
-0.4266188914
 10
-0.1899093366
 20
-0.4284021795
 10
-0.1946647714
 20
-0.4297608751
 10
-0.1996183493
 20
-0.4307232845
 10
-0.2047983764
 20
-0.4313177139
 10
-0.2101765467
 20
-0.431515857
 10
-0.2101765467
 20
-0.431515857
 10
-0.2154697985
 20
-0.4314026324
 10
-0.2205932134
 20
-0.4311195708
 10
-0.2255184851
 20
-0.4306100599
 10
-0.2302456138
 20
-0.4299307121
 10
-0.2393035848
 20
-0.4280625055
 10
-0.2479652695
 20
-0.425656482
 10
-0.2479652695
 20
-0.425656482
 10
-0.2479652695
 20
-0.2938346976
 10
-0.2479652695
 20
-0.2938346976
 10
-0.2244145449
 20
-0.2938346976
 10
-0.2244145449
 20
-0.2938346976
 10
-0.2244145449
 20
-0.3259055762
 10
-0.2244145449
 20
-0.3259055762
 10
-0.2253769543
 20
-0.3450688461
 10
-0.2253769543
 20
-0.3450688461
 10
-0.2226029507
 20
-0.3418419439
 10
-0.2195741916
 20
-0.3389547157
 10
-0.2163472895
 20
-0.3363788552
 10
-0.212893938
 20
-0.3341709747
 10
-0.2091292188
 20
-0.3323876867
 10
-0.2050248257
 20
-0.3310856034
 10
-0.2005524525
 20
-0.3303213371
 10
-0.1957120993
 20
-0.3300665816
 10
-0.1957120993
 20
-0.3300665816
 10
-0.1914378692
 20
-0.3302930309
 10
-0.1874183945
 20
-0.3309157664
 10
-0.1836536753
 20
-0.3320197066
 10
-0.1801437116
 20
-0.3335199331
 10
-0.1768601971
 20
-0.3354164458
 10
-0.1738597442
 20
-0.3377092447
 10
-0.1711423529
 20
-0.3403417175
 10
-0.1687080232
 20
-0.3433704766
 10
-0.1665284489
 20
-0.3467389095
 10
-0.1646036301
 20
-0.3504470164
 10
-0.162990179
 20
-0.3544664911
 10
-0.1616314833
 20
-0.3588539458
 10
-0.1605558493
 20
-0.3635244621
 10
-0.159791583
 20
-0.36847804
 10
-0.1593386844
 20
-0.3737429856
 10
-0.1591971536
 20
-0.3792626867
  0
LWPOLYLINE
  5
80
330
1F
100
AcDbEntity
  8
0
  6
Continuous
 62
     7
100
AcDbPolyline
 90
       50
 70
   128
 43
0.0
 10
-0.184559388
 20
-0.3802817084
 10
-0.1846443909
 20
-0.3763754584
 10
-0.184842534
 20
-0.37275227
 10
-0.1852105141
 20
-0.3694687555
 10
-0.185720025
 20
-0.3664683026
 10
-0.1863710666
 20
-0.3637226052
 10
-0.187135333
 20
-0.3612599693
 10
-0.1880411301
 20
-0.3590237827
 10
-0.1890601518
 20
-0.3570706577
 10
-0.1901923982
 20
-0.355343982
 10
-0.1914661753
 20
-0.3538720617
 10
-0.1928531772
 20
-0.3526548968
 10
-0.1943534036
 20
-0.3516924874
 10
-0.1959668547
 20
-0.3509565273
 10
-0.1976935304
 20
-0.3504187103
 10
-0.1995617369
 20
-0.3501073425
 10
-0.2015148619
 20
-0.3499941179
 10
-0.2015148619
 20
-0.3499941179
 10
-0.2044587025
 20
-0.3503054856
 10
-0.2073459308
 20
-0.3512112827
 10
-0.2101482406
 20
-0.3527115092
 10
-0.2129222442
 20
-0.3548344711
 10
-0.2156679416
 20
-0.3574669439
 10
-0.2184985576
 20
-0.3605523153
 10
-0.221414092
 20
-0.3640622791
 10
-0.2244145449
 20
-0.3679968353
 10
-0.2244145449
 20
-0.3679968353
 10
-0.2244145449
 20
-0.4109938914
 10
-0.2244145449
 20
-0.4109938914
 10
-0.2213008674
 20
-0.4119563008
 10
-0.2175361482
 20
-0.4127205671
 10
-0.2134034489
 20
-0.413230078
 10
-0.2092141373
 20
-0.413399915
 10
-0.2092141373
 20
-0.413399915
 10
-0.2064684398
 20
-0.4132583842
 10
-0.2038642732
 20
-0.4128054856
 10
-0.2014016373
 20
-0.4120978316
 10
-0.1990522261
 20
-0.4110788099
 10
-0.1968443456
 20
-0.4098050327
 10
-0.1948063022
 20
-0.4082765001
 10
-0.1929380956
 20
-0.4065215182
 10
-0.1912397261
 20
-0.4045117809
 10
-0.1897111935
 20
-0.4022472882
 10
-0.188380804
 20
-0.3997563461
 10
-0.1872485576
 20
-0.3970389548
 10
-0.1862861482
 20
-0.3940951142
 10
-0.1855218819
 20
-0.3909248244
 10
-0.1849840648
 20
-0.3875563914
 10
-0.1846726971
 20
-0.3840181215
 10
-0.1845594724
 20
-0.3802817084
  0
LWPOLYLINE
  5
81
330
1F
100
AcDbEntity
  8
0
  6
Continuous
 62
     7
100
AcDbPolyline
 90
       68
 70
   128
 43
0.0
 10
-0.0541246547
 20
-0.3799703407
 10
-0.054322833
 20
-0.3856032664
 10
-0.0549172623
 20
-0.3909531305
 10
-0.055936284
 20
-0.3961048516
 10
-0.0573232859
 20
-0.400973511
 10
-0.0591065739
 20
-0.4055591088
 10
-0.0612295359
 20
-0.4098050327
 10
-0.0637204779
 20
-0.4137112827
 10
-0.0665510938
 20
-0.4172778588
 10
-0.0697213837
 20
-0.4204764548
 10
-0.0732313474
 20
-0.4233070708
 10
-0.0771092913
 20
-0.4257414005
 10
-0.081326909
 20
-0.4278077501
 10
-0.0858558945
 20
-0.4294212012
 10
-0.0906679416
 20
-0.4305817537
 10
-0.0958196627
 20
-0.4312894077
 10
-0.1012544453
 20
-0.431515857
 10
-0.1012544453
 20
-0.431515857
 10
-0.1064344724
 20
-0.4313177139
 10
-0.111331438
 20
-0.4307232845
 10
-0.115945342
 20
-0.4297608751
 10
-0.1202761844
 20
-0.4283738733
 10
-0.124295659
 20
-0.4265905853
 10
-0.1280037659
 20
-0.4244393171
 10
-0.1314005051
 20
-0.4218917628
 10
-0.1344858764
 20
-0.4189479222
 10
-0.1372315739
 20
-0.4156077954
 10
-0.1396375974
 20
-0.4118996885
 10
-0.1417039471
 20
-0.4077669892
 10
-0.1434306228
 20
-0.4032663099
 10
-0.1447893185
 20
-0.3983693443
 10
-0.1457517279
 20
-0.3930760925
 10
-0.1463178511
 20
-0.3873865545
 10
-0.1465159942
 20
-0.3813290363
 10
-0.1465159942
 20
-0.3813290363
 10
-0.1463178511
 20
-0.3756678045
 10
-0.1456951156
 20
-0.3702896342
 10
-0.1447044
 20
-0.3651662193
 10
-0.143289092
 20
-0.3602975599
 10
-0.1414774978
 20
-0.3557402682
 10
-0.1393262297
 20
-0.3515226505
 10
-0.1368352877
 20
-0.3476447066
 10
-0.1339763656
 20
-0.3441347429
 10
-0.1307777695
 20
-0.340964453
 10
-0.1272111935
 20
-0.3381904494
 10
-0.1233615558
 20
-0.3357844258
 10
-0.119143938
 20
-0.3337463824
 10
-0.1146149525
 20
-0.3321329313
 10
-0.1098312116
 20
-0.3309723787
 10
-0.1047361029
 20
-0.3302930309
 10
-0.0993862388
 20
-0.3300665816
 10
-0.0993862388
 20
-0.3300665816
 10
-0.0941779054
 20
-0.3302647247
 10
-0.0892526337
 20
-0.3308591541
 10
-0.0846104235
 20
-0.3318781758
 10
-0.0802795811
 20
-0.3332651776
 10
-0.0762601065
 20
-0.3350484657
 10
-0.0725236935
 20
-0.33722804
 10
-0.0691552605
 20
-0.3398039005
 10
-0.0660698891
 20
-0.3427760472
 10
-0.0633241916
 20
-0.346116174
 10
-0.0609181681
 20
-0.3498525871
 10
-0.0588801246
 20
-0.3539569802
 10
-0.0571817551
 20
-0.3584293534
 10
-0.0558513656
 20
-0.3632697066
 10
-0.0548889561
 20
-0.36847804
 10
-0.054322833
 20
-0.3740260472
 10
-0.0541246898
 20
-0.3799703407
  0
LWPOLYLINE
  5
82
330
1F
100
AcDbEntity
  8
0
  6
Continuous
 62
     7
100
AcDbPolyline
 90
       64
 70
   128
 43
0.0
 10
-0.0776753827
 20
-0.3805364639
 10
-0.077760333
 20
-0.3768566632
 10
-0.0780433945
 20
-0.3734033117
 10
-0.0784679869
 20
-0.3701764095
 10
-0.0790907224
 20
-0.3672042628
 10
-0.0799116011
 20
-0.3644585653
 10
-0.0808740105
 20
-0.3619676233
 10
-0.082034563
 20
-0.3597031305
 10
-0.0833649525
 20
-0.3576650871
 10
-0.084865179
 20
-0.3558534929
 10
-0.0865352424
 20
-0.3542966541
 10
-0.0883751427
 20
-0.3529945708
 10
-0.0903848801
 20
-0.3519189367
 10
-0.0925644543
 20
-0.3510697519
 10
-0.0949138656
 20
-0.3504753226
 10
-0.0974331138
 20
-0.3501073425
 10
-0.1001221989
 20
-0.3499941179
 10
-0.1001221989
 20
-0.3499941179
 10
-0.1030660395
 20
-0.3501356487
 10
-0.1057834308
 20
-0.3505885472
 10
-0.1082743728
 20
-0.3513528135
 10
-0.1105388656
 20
-0.3524001414
 10
-0.1126052152
 20
-0.3537022247
 10
-0.1144451156
 20
-0.3552590635
 10
-0.1161434851
 20
-0.3570140454
 10
-0.1176154054
 20
-0.3590237827
 10
-0.1189174888
 20
-0.361203357
 10
-0.120021429
 20
-0.3635527682
 10
-0.1209555322
 20
-0.3661003226
 10
-0.1216914924
 20
-0.3688177139
 10
-0.1226539018
 20
-0.3745921704
 10
-0.1229652695
 20
-0.380734607
 10
-0.1229652695
 20
-0.380734607
 10
-0.1228803511
 20
-0.3844427139
 10
-0.1225689833
 20
-0.3879243715
 10
-0.1221160848
 20
-0.3911795798
 10
-0.1214367369
 20
-0.3941800327
 10
-0.1205875522
 20
-0.3969540363
 10
-0.1195119181
 20
-0.3994732845
 10
-0.1182947532
 20
-0.4017660834
 10
-0.1168511391
 20
-0.4038324331
 10
-0.1152659942
 20
-0.4056440273
 10
-0.1135110123
 20
-0.4072291722
 10
-0.1116428058
 20
-0.4085595617
 10
-0.1096047623
 20
-0.4096351958
 10
-0.1074534942
 20
-0.4104843805
 10
-0.1051606953
 20
-0.4111071161
 10
-0.1026980594
 20
-0.4114750961
 10
-0.1001221989
 20
-0.4115883208
 10
-0.1001221989
 20
-0.4115883208
 10
-0.097291583
 20
-0.41144679
 10
-0.0946874163
 20
-0.4109938914
 10
-0.0922530866
 20
-0.4102579313
 10
-0.0900169
 20
-0.4092389095
 10
-0.0879788565
 20
-0.4079368262
 10
-0.08611065
 20
-0.4064082936
 10
-0.0844971989
 20
-0.4046533117
 10
-0.0830535848
 20
-0.4026718805
 10
-0.0817798076
 20
-0.4004923063
 10
-0.0807041735
 20
-0.3981145889
 10
-0.0797700703
 20
-0.3955387284
 10
-0.0790341101
 20
-0.3927930309
 10
-0.0780150884
 20
-0.3868770436
 10
-0.0776754145
 20
-0.3805364639
  0
LWPOLYLINE
  5
83
330
1F
100
AcDbEntity
  8
0
  6
Continuous
 62
     7
100
AcDbPolyline
 90
      108
 70
   128
 43
0.0
 10
0.1560201443
 20
-0.4242694802
 10
0.1518592323
 20
-0.4259961559
 10
0.1477831453
 20
-0.4274680762
 10
0.1437636707
 20
-0.4287135472
 10
0.1398008084
 20
-0.4297325689
 10
0.135837946
 20
-0.4305251414
 10
0.1317901652
 20
-0.4310629584
 10
0.1276857721
 20
-0.4314026324
 10
0.1234681544
 20
-0.431515857
 10
0.1234681544
 20
-0.431515857
 10
0.1168728192
 20
-0.4312611016
 10
0.1107020765
 20
-0.4305251414
 10
0.1048710076
 20
-0.4292796704
 10
0.0994645312
 20
-0.4275529947
 10
0.094454341
 20
-0.4253168081
 10
0.089840437
 20
-0.4225994168
 10
0.0856228192
 20
-0.4194008208
 10
0.0818297939
 20
-0.41572102
 10
0.0784613609
 20
-0.4115600146
 10
0.0755458265
 20
-0.4069178045
 10
0.0730265783
 20
-0.4017943896
 10
0.0709602286
 20
-0.3962180762
 10
0.0693467776
 20
-0.3901605581
 10
0.068186225
 20
-0.3836218353
 10
0.067478571
 20
-0.3766302139
 10
0.0672521218
 20
-0.3691573878
 10
0.0672521218
 20
-0.3691573878
 10
0.0675068772
 20
-0.3614864186
 10
0.0682711435
 20
-0.3542400418
 10
0.0695166145
 20
-0.3474465635
 10
0.0712999026
 20
-0.3410776776
 10
0.0735360891
 20
-0.3351616903
 10
0.0762251743
 20
-0.3297269077
 10
0.0793105457
 20
-0.3247733298
 10
0.0828488156
 20
-0.3203009566
 10
0.0868116779
 20
-0.3163097882
 10
0.0911708265
 20
-0.3128281305
 10
0.0959262612
 20
-0.3098276776
 10
0.1010779823
 20
-0.3073650418
 10
0.1066259895
 20
-0.3054119168
 10
0.1124853645
 20
-0.3039966088
 10
0.1186844134
 20
-0.3031757302
 10
0.1252231362
 20
-0.3028926686
 10
0.1252231362
 20
-0.3028926686
 10
0.1294124478
 20
-0.3029209747
 10
0.133347004
 20
-0.3030625055
 10
0.1371117232
 20
-0.3032606487
 10
0.1407915239
 20
-0.3036286287
 10
0.1444996308
 20
-0.3041098334
 10
0.1482077377
 20
-0.3047608751
 10
0.1520573754
 20
-0.3055251414
 10
0.1560202377
 20
-0.306515857
 10
0.1560202377
 20
-0.306515857
 10
0.1560202377
 20
-0.3300665816
 10
0.1560202377
 20
-0.3300665816
 10
0.1519441507
 20
-0.3282549874
 10
0.1479529823
 20
-0.3267264548
 10
0.1440467323
 20
-0.3254526776
 10
0.1402537069
 20
-0.3244902682
 10
0.1366022123
 20
-0.3237543081
 10
0.1331205547
 20
-0.3232447972
 10
0.1297804279
 20
-0.3229334295
 10
0.1266384442
 20
-0.3228202048
 10
0.1266384442
 20
-0.3228202048
 10
0.1222792957
 20
-0.3230183479
 10
0.118259821
 20
-0.3236127773
 10
0.1145517141
 20
-0.324631799
 10
0.1111832812
 20
-0.326047107
 10
0.108126216
 20
-0.3278020889
 10
0.1053239062
 20
-0.3298967447
 10
0.1028329641
 20
-0.3323310744
 10
0.1006250837
 20
-0.3350767718
 10
0.0987002649
 20
-0.3381055309
 10
0.0970302015
 20
-0.3414456577
 10
0.0956431997
 20
-0.34504054
 10
0.0945392594
 20
-0.3489184838
 10
0.0936900747
 20
-0.3530228769
 10
0.0930956453
 20
-0.3573254132
 10
0.0927276652
 20
-0.3618260925
 10
0.0926144406
 20
-0.366524915
 10
0.0926144406
 20
-0.366524915
 10
0.0927276652
 20
-0.3714784929
 10
0.0931239515
 20
-0.3761773153
 10
0.0937183808
 20
-0.3805930762
 10
0.0945958718
 20
-0.3847540816
 10
0.0957281181
 20
-0.3886037193
 10
0.0971434261
 20
-0.3921419892
 10
0.0988134895
 20
-0.3953971976
 10
0.1007666145
 20
-0.3983410382
 10
0.1030028011
 20
-0.400973511
 10
0.1055503555
 20
-0.4032663099
 10
0.1083526652
 20
-0.4052194349
 10
0.1114663428
 20
-0.4068611921
 10
0.1148913881
 20
-0.4081349693
 10
0.1185994949
 20
-0.4090407664
 10
0.1226189696
 20
-0.4096068896
 10
0.126949812
 20
-0.4097767266
 10
0.126949812
 20
-0.4097767266
 10
0.1302899388
 20
-0.4096351958
 10
0.133884821
 20
-0.4091822972
 10
0.1376778464
 20
-0.4084746432
 10
0.1414708718
 20
-0.4075971523
 10
0.1452922033
 20
-0.4065215182
 10
0.1490569225
 20
-0.4052760472
 10
0.1526801109
 20
-0.4039173516
 10
0.1560202377
 20
-0.4025303497
 10
0.1560202377
 20
-0.4025303497
 10
0.1560202377
 20
-0.4242694802
  0
LWPOLYLINE
  5
84
330
1F
100
AcDbEntity
  8
0
  6
Continuous
 62
     7
100
AcDbPolyline
 90
       68
 70
   128
 43
0.0
 10
0.2665273611
 20
-0.3799703407
 10
0.266329341
 20
-0.3856032664
 10
0.2657349116
 20
-0.3909531305
 10
0.2647158899
 20
-0.3961048516
 10
0.2633288881
 20
-0.400973511
 10
0.2615456
 20
-0.4055591088
 10
0.2594226381
 20
-0.4098050327
 10
0.256931696
 20
-0.4137112827
 10
0.2541010801
 20
-0.4172778588
 10
0.2509307902
 20
-0.4204764548
 10
0.2474208265
 20
-0.4233070708
 10
0.2435428826
 20
-0.4257414005
 10
0.2393252649
 20
-0.4278077501
 10
0.2347962794
 20
-0.4294212012
 10
0.2299842323
 20
-0.4305817537
 10
0.2248325112
 20
-0.4312894077
 10
0.2193977286
 20
-0.431515857
 10
0.2193977286
 20
-0.431515857
 10
0.2142177015
 20
-0.4313177139
 10
0.2093207359
 20
-0.4307232845
 10
0.2047068319
 20
-0.4297608751
 10
0.2003759895
 20
-0.4283738733
 10
0.1963565149
 20
-0.4265905853
 10
0.192648408
 20
-0.4244393171
 10
0.1892516689
 20
-0.4218917628
 10
0.1861662975
 20
-0.4189479222
 10
0.1834206
 20
-0.4156077954
 10
0.1810145765
 20
-0.4118996885
 10
0.1789482268
 20
-0.4077669892
 10
0.1772215511
 20
-0.4032663099
 10
0.1758628555
 20
-0.3983693443
 10
0.174900446
 20
-0.3930760925
 10
0.1743343228
 20
-0.3873865545
 10
0.1741361797
 20
-0.3813290363
 10
0.1741361797
 20
-0.3813290363
 10
0.1743343228
 20
-0.3756678045
 10
0.1749570584
 20
-0.3702896342
 10
0.1759477739
 20
-0.3651662193
 10
0.1773630819
 20
-0.3602975599
 10
0.1791746761
 20
-0.3557402682
 10
0.1813259442
 20
-0.3515226505
 10
0.1838168862
 20
-0.3476447066
 10
0.1866758084
 20
-0.3441347429
 10
0.1898744044
 20
-0.340964453
 10
0.1934409805
 20
-0.3381904494
 10
0.1972906181
 20
-0.3357844258
 10
0.2015082359
 20
-0.3337463824
 10
0.2060372214
 20
-0.3321329313
 10
0.2108209623
 20
-0.3309723787
 10
0.215916071
 20
-0.3302930309
 10
0.2212659352
 20
-0.3300665816
 10
0.2212659352
 20
-0.3300665816
 10
0.2264742685
 20
-0.3302647247
 10
0.2313995402
 20
-0.3308591541
 10
0.2360417504
 20
-0.3318781758
 10
0.2403725928
 20
-0.3332651776
 10
0.2443920674
 20
-0.3350484657
 10
0.2481284805
 20
-0.33722804
 10
0.2514969134
 20
-0.3398039005
 10
0.2545822848
 20
-0.3427760472
 10
0.2573279823
 20
-0.346116174
 10
0.2597340058
 20
-0.3498525871
 10
0.2617720493
 20
-0.3539569802
 10
0.2634704189
 20
-0.3584293534
 10
0.2648008084
 20
-0.3632697066
 10
0.2657632178
 20
-0.36847804
 10
0.266329341
 20
-0.3740260472
 10
0.2665274841
 20
-0.3799703407
  0
LWPOLYLINE
  5
85
330
1F
100
AcDbEntity
  8
0
  6
Continuous
 62
     7
100
AcDbPolyline
 90
       64
 70
   128
 43
0.0
 10
0.2429766331
 20
-0.3805364639
 10
0.242891841
 20
-0.3768566632
 10
0.2426087794
 20
-0.3734033117
 10
0.242184187
 20
-0.3701764095
 10
0.2415614515
 20
-0.3672042628
 10
0.2407405728
 20
-0.3644585653
 10
0.2397781634
 20
-0.3619676233
 10
0.2386176109
 20
-0.3597031305
 10
0.2372872214
 20
-0.3576650871
 10
0.2357869949
 20
-0.3558534929
 10
0.2341169315
 20
-0.3542966541
 10
0.2322770312
 20
-0.3529945708
 10
0.2302672939
 20
-0.3519189367
 10
0.2280877196
 20
-0.3510697519
 10
0.2257383084
 20
-0.3504753226
 10
0.2232190602
 20
-0.3501073425
 10
0.220529975
 20
-0.3499941179
 10
0.220529975
 20
-0.3499941179
 10
0.2175861344
 20
-0.3501356487
 10
0.2148687431
 20
-0.3505885472
 10
0.2123778011
 20
-0.3513528135
 10
0.2101133084
 20
-0.3524001414
 10
0.2080469587
 20
-0.3537022247
 10
0.2062070584
 20
-0.3552590635
 10
0.2045086888
 20
-0.3570140454
 10
0.2030367685
 20
-0.3590237827
 10
0.2017346852
 20
-0.361203357
 10
0.2006307449
 20
-0.3635527682
 10
0.1996966417
 20
-0.3661003226
 10
0.1989606815
 20
-0.3688177139
 10
0.1979982721
 20
-0.3745921704
 10
0.1976869044
 20
-0.380734607
 10
0.1976869044
 20
-0.380734607
 10
0.1977718228
 20
-0.3844427139
 10
0.1980831906
 20
-0.3879243715
 10
0.1985360891
 20
-0.3911795798
 10
0.199215437
 20
-0.3941800327
 10
0.2000646218
 20
-0.3969540363
 10
0.2011402558
 20
-0.3994732845
 10
0.2023574207
 20
-0.4017660834
 10
0.2038010348
 20
-0.4038324331
 10
0.2053861797
 20
-0.4056440273
 10
0.2071411616
 20
-0.4072291722
 10
0.2090093681
 20
-0.4085595617
 10
0.2110474116
 20
-0.4096351958
 10
0.2131986797
 20
-0.4104843805
 10
0.2154914786
 20
-0.4111071161
 10
0.2179541145
 20
-0.4114750961
 10
0.220529975
 20
-0.4115883208
 10
0.220529975
 20
-0.4115883208
 10
0.223360591
 20
-0.41144679
 10
0.2259647576
 20
-0.4109938914
 10
0.2283990873
 20
-0.4102579313
 10
0.2306352739
 20
-0.4092389095
 10
0.2326733174
 20
-0.4079368262
 10
0.2345415239
 20
-0.4064082936
 10
0.236154975
 20
-0.4046533117
 10
0.2375985891
 20
-0.4026718805
 10
0.2388723663
 20
-0.4004923063
 10
0.2399480004
 20
-0.3981145889
 10
0.2408821036
 20
-0.3955387284
 10
0.2416180638
 20
-0.3927930309
 10
0.2426370855
 20
-0.3868770436
 10
0.2429767594
 20
-0.3805364639
  0
LWPOLYLINE
  5
86
330
1F
100
AcDbEntity
  8
0
  6
Continuous
 62
     7
100
AcDbPolyline
 90
       58
 70
   128
 43
0.0
 10
0.3752229721
 20
-0.3792626867
 10
0.374996687
 20
-0.3857447972
 10
0.3742607268
 20
-0.3918023153
 10
0.3730718681
 20
-0.3973786287
 10
0.3713734986
 20
-0.4025020436
 10
0.3692505366
 20
-0.4072008661
 10
0.3667595946
 20
-0.4114750961
 10
0.3639006725
 20
-0.4153247338
 10
0.3606454641
 20
-0.4187780853
 10
0.3570788881
 20
-0.4218068443
 10
0.3531726381
 20
-0.424411011
 10
0.3489833265
 20
-0.4266188914
 10
0.344454341
 20
-0.4284021795
 10
0.3396706
 20
-0.4297608751
 10
0.3347170221
 20
-0.4307232845
 10
0.3295086888
 20
-0.4313177139
 10
0.3241305185
 20
-0.431515857
 10
0.3241305185
 20
-0.431515857
 10
0.3204224116
 20
-0.4314026324
 10
0.3167143047
 20
-0.4310346523
 10
0.313204341
 20
-0.4304685291
 10
0.3100057449
 20
-0.4297891813
 10
0.3100057449
 20
-0.4297891813
 10
0.3100057449
 20
-0.4677477411
 10
0.3100057449
 20
-0.4677477411
 10
0.2864550203
 20
-0.4677477411
 10
0.2864550203
 20
-0.4677477411
 10
0.2864550203
 20
-0.3318781758
 10
0.2864550203
 20
-0.3318781758
 10
0.3068637612
 20
-0.3318781758
 10
0.3068637612
 20
-0.3318781758
 10
0.3074298844
 20
-0.3463143171
 10
0.3074298844
 20
-0.3463143171
 10
0.3105152558
 20
-0.3428043534
 10
0.3137138518
 20
-0.3396057574
 10
0.317110591
 20
-0.3368034476
 10
0.3207620855
 20
-0.3344540363
 10
0.3246966417
 20
-0.3325858298
 10
0.3289142594
 20
-0.331198828
 10
0.3335564696
 20
-0.3303496432
 10
0.3387364968
 20
-0.3300665816
 10
0.3387364968
 20
-0.3300665816
 10
0.3430107268
 20
-0.3302930309
 10
0.3470302015
 20
-0.3309157664
 10
0.3507949207
 20
-0.3320197066
 10
0.3543048844
 20
-0.3335199331
 10
0.3575883989
 20
-0.3354164458
 10
0.3605888518
 20
-0.3377092447
 10
0.3633062431
 20
-0.3403417175
 10
0.3657405728
 20
-0.3433704766
 10
0.3679201471
 20
-0.3467389095
 10
0.3698166598
 20
-0.3504470164
 10
0.3714301109
 20
-0.3544664911
 10
0.3727888065
 20
-0.3588539458
 10
0.3738644406
 20
-0.3635244621
 10
0.3746287069
 20
-0.36847804
 10
0.3750816055
 20
-0.3737429856
 10
0.3752231362
 20
-0.3792626867
  0
LWPOLYLINE
  5
87
330
1F
100
AcDbEntity
  8
0
  6
Continuous
 62
     7
100
AcDbPolyline
 90
       50
 70
   128
 43
0.0
 10
0.349860785
 20
-0.3802817084
 10
0.3497758989
 20
-0.3763754584
 10
0.3495777558
 20
-0.37275227
 10
0.3492097757
 20
-0.3694687555
 10
0.3487002649
 20
-0.3664683026
 10
0.3480492232
 20
-0.3637226052
 10
0.3472849569
 20
-0.3612599693
 10
0.3463791598
 20
-0.3590237827
 10
0.3453601381
 20
-0.3570706577
 10
0.3442278917
 20
-0.355343982
 10
0.3429541145
 20
-0.3538720617
 10
0.3415671127
 20
-0.3526548968
 10
0.3400668862
 20
-0.3516924874
 10
0.3384534352
 20
-0.3509565273
 10
0.3367267594
 20
-0.3504187103
 10
0.3348585529
 20
-0.3501073425
 10
0.3329054279
 20
-0.3499941179
 10
0.3329054279
 20
-0.3499941179
 10
0.3299615873
 20
-0.3503054856
 10
0.3270743591
 20
-0.3512112827
 10
0.3242720493
 20
-0.3527115092
 10
0.3214980457
 20
-0.3548344711
 10
0.3187523482
 20
-0.3574669439
 10
0.3159217323
 20
-0.3605523153
 10
0.3130061978
 20
-0.3640622791
 10
0.3100057449
 20
-0.3679968353
 10
0.3100057449
 20
-0.3679968353
 10
0.3100057449
 20
-0.4109938914
 10
0.3100057449
 20
-0.4109938914
 10
0.3131194225
 20
-0.4119563008
 10
0.3168841417
 20
-0.4127205671
 10
0.321016841
 20
-0.413230078
 10
0.3252061526
 20
-0.413399915
 10
0.3252061526
 20
-0.413399915
 10
0.32795185
 20
-0.4132583842
 10
0.3305560167
 20
-0.4128054856
 10
0.3330186526
 20
-0.4120978316
 10
0.3353680638
 20
-0.4110788099
 10
0.3375759442
 20
-0.4098050327
 10
0.3396139877
 20
-0.4082765001
 10
0.3414821942
 20
-0.4065215182
 10
0.3431805638
 20
-0.4045117809
 10
0.3447090964
 20
-0.4022472882
 10
0.3460394859
 20
-0.3997563461
 10
0.3471717323
 20
-0.3970389548
 10
0.3481341417
 20
-0.3940951142
 10
0.348898408
 20
-0.3909248244
 10
0.349436225
 20
-0.3875563914
 10
0.3497475928
 20
-0.3840181215
 10
0.3498608174
 20
-0.3802817084
  0
LWPOLYLINE
  5
88
330
1F
100
AcDbEntity
  8
0
  6
Continuous
 62
     7
100
AcDbPolyline
 90
       44
 70
   128
 43
0.0
 10
-0.5664685228
 20
-2.4308627805
 10
-0.5665993814
 20
-2.4340394835
 10
-0.5670104842
 20
-2.437085381
 10
-0.5676831977
 20
-2.4400004732
 10
-0.5686362086
 20
-2.4428034464
 10
-0.5698508303
 20
-2.4454569277
 10
-0.5713083764
 20
-2.4479048576
 10
-0.5730462198
 20
-2.4501846092
 10
-0.575045674
 20
-2.4522774958
 10
-0.5773067391
 20
-2.4541648311
 10
-0.579829415
 20
-2.4558279286
 10
-0.5826137017
 20
-2.4572854746
 10
-0.5856595992
 20
-2.4585000964
 10
-0.5889484211
 20
-2.4594717937
 10
-0.5924988539
 20
-2.4601445073
 10
-0.5963108974
 20
-2.4605742965
 10
-0.6003845518
 20
-2.4607051019
 10
-0.6003845518
 20
-2.4607051019
 10
-0.6083263092
 20
-2.4607051019
 10
-0.6083263092
 20
-2.4607051019
 10
-0.6083263092
 20
-2.4870156771
 10
-0.6083263092
 20
-2.4870156771
 10
-0.6238734673
 20
-2.4870156771
 10
-0.6238734673
 20
-2.4870156771
 10
-0.6238734673
 20
-2.4044961459
 10
-0.6238734673
 20
-2.4044961459
 10
-0.5996370923
 20
-2.4044961459
 10
-0.5996370923
 20
-2.4044961459
 10
-0.5957316163
 20
-2.4046082648
 10
-0.5920690646
 20
-2.4049259351
 10
-0.5886307508
 20
-2.4054865297
 10
-0.5854353614
 20
-2.4062526758
 10
-0.5824642098
 20
-2.4072243731
 10
-0.5797359825
 20
-2.4084016219
 10
-0.5772693661
 20
-2.4097657355
 10
-0.575045674
 20
-2.411354087
 10
-0.5730649063
 20
-2.4131293034
 10
-0.5713457494
 20
-2.4150913846
 10
-0.5698695168
 20
-2.4172590172
 10
-0.5686548951
 20
-2.4196135147
 10
-0.5677018842
 20
-2.4221548771
 10
-0.5670104842
 20
-2.4248831043
 10
-0.5665993814
 20
-2.42777951
 10
-0.566468576
 20
-2.4308627805
  0
LWPOLYLINE
  5
89
330
1F
100
AcDbEntity
  8
0
  6
Continuous
 62
     7
100
AcDbPolyline
 90
       40
 70
   128
 43
0.0
 10
-0.5832115027
 20
-2.4319465968
 10
-0.5832677288
 20
-2.4303582453
 10
-0.5834732801
 20
-2.4288446398
 10
-0.5837909504
 20
-2.4274057802
 10
-0.5842581126
 20
-2.4260416666
 10
-0.5848373938
 20
-2.4247709854
 10
-0.5855474803
 20
-2.4235750502
 10
-0.5864070588
 20
-2.4225099204
 10
-0.5873787561
 20
-2.4215195365
 10
-0.5884999454
 20
-2.4206412716
 10
-0.5897519401
 20
-2.4198751255
 10
-0.5911347402
 20
-2.419202412
 10
-0.5926670323
 20
-2.4186605038
 10
-0.5943301297
 20
-2.4182120281
 10
-0.5961614055
 20
-2.4178943578
 10
-0.5981234868
 20
-2.4177074929
 10
-0.6002537464
 20
-2.4176514335
 10
-0.6002537464
 20
-2.4176514335
 10
-0.6083263092
 20
-2.4176514335
 10
-0.6083263092
 20
-2.4176514335
 10
-0.6083263092
 20
-2.4475498144
 10
-0.6083263092
 20
-2.4475498144
 10
-0.5997492112
 20
-2.4475498144
 10
-0.5997492112
 20
-2.4475498144
 10
-0.5978058165
 20
-2.4474750684
 10
-0.5959745406
 20
-2.447269517
 10
-0.5942553837
 20
-2.4469331603
 10
-0.5926670323
 20
-2.4464659981
 10
-0.5911907997
 20
-2.4458493439
 10
-0.5898453726
 20
-2.4451205709
 10
-0.5886120643
 20
-2.4442796789
 10
-0.5875095615
 20
-2.4433079816
 10
-0.5865191777
 20
-2.4422241653
 10
-0.5856595992
 20
-2.4410469165
 10
-0.5849121397
 20
-2.4397575488
 10
-0.5843141721
 20
-2.4383747487
 10
-0.5838283234
 20
-2.4368985162
 10
-0.5834919666
 20
-2.4353288512
 10
-0.5832864152
 20
-2.4336844402
 10
-0.5832116693
 20
-2.4319465968
  0
LWPOLYLINE
  5
8A
330
1F
100
AcDbEntity
  8
0
  6
Continuous
 62
     7
100
AcDbPolyline
 90
       58
 70
   128
 43
0.0
 10
-0.5114553716
 20
-2.4475498144
 10
-0.5114368687
 20
-2.4458493439
 10
-0.5114742417
 20
-2.4442983654
 10
-0.5116050471
 20
-2.4428595059
 10
-0.5118105984
 20
-2.4415701382
 10
-0.5124085661
 20
-2.4393090731
 10
-0.5133055175
 20
-2.4374777973
 10
-0.5144453933
 20
-2.4360949972
 10
-0.5158468799
 20
-2.4351419863
 10
-0.5174539178
 20
-2.4345813916
 10
-0.5192851937
 20
-2.4343945268
 10
-0.5192851937
 20
-2.4343945268
 10
-0.5209856641
 20
-2.4345627052
 10
-0.5227235075
 20
-2.4350859268
 10
-0.5244800373
 20
-2.4359641918
 10
-0.5262739402
 20
-2.4371788135
 10
-0.528105216
 20
-2.4388045379
 10
-0.5300486108
 20
-2.4408600516
 10
-0.5320667515
 20
-2.4433827275
 10
-0.5341783246
 20
-2.4463538791
 10
-0.5341783246
 20
-2.4463538791
 10
-0.5341783246
 20
-2.4870156771
 10
-0.5341783246
 20
-2.4870156771
 10
-0.5497254827
 20
-2.4870156771
 10
-0.5497254827
 20
-2.4870156771
 10
-0.5497254827
 20
-2.4224351744
 10
-0.5497254827
 20
-2.4224351744
 10
-0.535990914
 20
-2.4224351744
 10
-0.535990914
 20
-2.4224351744
 10
-0.5354303193
 20
-2.4320026563
 10
-0.5354303193
 20
-2.4320026563
 10
-0.5337485354
 20
-2.4296668453
 10
-0.5318798866
 20
-2.4275739586
 10
-0.5297869999
 20
-2.4257426828
 10
-0.5274698754
 20
-2.4241917043
 10
-0.5249098266
 20
-2.4229210231
 10
-0.5220881669
 20
-2.4220053852
 10
-0.5189862099
 20
-2.4214261041
 10
-0.5156039555
 20
-2.4212392392
 10
-0.5156039555
 20
-2.4212392392
 10
-0.513249458
 20
-2.4213513581
 10
-0.5110444524
 20
-2.4216503419
 10
-0.5089702523
 20
-2.4221922501
 10
-0.5070268575
 20
-2.4229210231
 10
-0.5052329546
 20
-2.4238553475
 10
-0.5035698572
 20
-2.4249952233
 10
-0.5020749382
 20
-2.4263219639
 10
-0.500729511
 20
-2.4278729424
 10
-0.4995335758
 20
-2.4296107858
 10
-0.4985058189
 20
-2.4315541806
 10
-0.4976462405
 20
-2.4337218132
 10
-0.4969548404
 20
-2.4360949972
 10
-0.4964316188
 20
-2.4386737325
 10
-0.4960765755
 20
-2.4414393328
 10
-0.4959083971
 20
-2.4443917979
 10
-0.4959083971
 20
-2.4475498144
 10
-0.4959083971
 20
-2.4475498144
 10
-0.5114555552
 20
-2.4475498144
  0
LWPOLYLINE
  5
8B
330
1F
100
AcDbEntity
  8
0
  6
Continuous
 62
     7
100
AcDbPolyline
 90
       68
 70
   128
 43
0.0
 10
-0.425348073
 20
-2.4541835176
 10
-0.4254790236
 20
-2.4579021287
 10
-0.4258714399
 20
-2.461433875
 10
-0.4265441534
 20
-2.4648348158
 10
-0.4274597914
 20
-2.4680488918
 10
-0.4286370401
 20
-2.4710761028
 10
-0.4300385267
 20
-2.473879076
 10
-0.4316829377
 20
-2.4764578114
 10
-0.4335515865
 20
-2.4788123089
 10
-0.4356444731
 20
-2.480923882
 10
-0.4379615976
 20
-2.4827925308
 10
-0.4405216465
 20
-2.4843995688
 10
-0.4433059332
 20
-2.4857636824
 10
-0.4462957713
 20
-2.4868288122
 10
-0.4494724743
 20
-2.4875949583
 10
-0.4528734151
 20
-2.4880621205
 10
-0.4564612208
 20
-2.4882116124
 10
-0.4564612208
 20
-2.4882116124
 10
-0.4598808481
 20
-2.4880808069
 10
-0.4631136106
 20
-2.4876883907
 10
-0.4661595081
 20
-2.4870530501
 10
-0.4690185408
 20
-2.4861374122
 10
-0.4716720221
 20
-2.4849601634
 10
-0.474119952
 20
-2.4835399904
 10
-0.4763623306
 20
-2.4818582064
 10
-0.4783991578
 20
-2.4799148117
 10
-0.4802117471
 20
-2.4777098061
 10
-0.4818000986
 20
-2.4752618761
 10
-0.4831642123
 20
-2.4725336489
 10
-0.484304088
 20
-2.4695624973
 10
-0.4852010394
 20
-2.4663297349
 10
-0.48583638
 20
-2.4628353616
 10
-0.4862101098
 20
-2.4590793775
 10
-0.4863409152
 20
-2.455080469
 10
-0.4863409152
 20
-2.455080469
 10
-0.4862101098
 20
-2.4513431714
 10
-0.4857990071
 20
-2.4477927387
 10
-0.48514498
 20
-2.4444104844
 10
-0.4842106556
 20
-2.4411964084
 10
-0.4830147203
 20
-2.4381878838
 10
-0.4815945473
 20
-2.4354035971
 10
-0.4799501363
 20
-2.4328435483
 10
-0.478062801
 20
-2.4305264237
 10
-0.4759512279
 20
-2.4284335371
 10
-0.4735967304
 20
-2.4266022612
 10
-0.471055368
 20
-2.4250139098
 10
-0.4682710813
 20
-2.4236684826
 10
-0.4652812432
 20
-2.4226033528
 10
-0.4621232267
 20
-2.4218372068
 10
-0.4587596589
 20
-2.4213887311
 10
-0.4552279126
 20
-2.4212392392
 10
-0.4552279126
 20
-2.4212392392
 10
-0.4517895988
 20
-2.4213700446
 10
-0.4485381499
 20
-2.4217624608
 10
-0.4454735658
 20
-2.4224351744
 10
-0.4426145332
 20
-2.4233508123
 10
-0.4399610519
 20
-2.4245280611
 10
-0.4374944354
 20
-2.4259669207
 10
-0.4352707434
 20
-2.4276673911
 10
-0.4332339162
 20
-2.4296294723
 10
-0.4314213268
 20
-2.4318344779
 10
-0.4298329753
 20
-2.4343010943
 10
-0.4284875482
 20
-2.4370106351
 10
-0.4273663589
 20
-2.4399631002
 10
-0.426488094
 20
-2.4431584897
 10
-0.4258527534
 20
-2.4465968035
 10
-0.4254790236
 20
-2.4502593551
 10
-0.4253482182
 20
-2.4541835176
  0
LWPOLYLINE
  5
8C
330
1F
100
AcDbEntity
  8
0
  6
Continuous
 62
     7
100
AcDbPolyline
 90
       64
 70
   128
 43
0.0
 10
-0.4408951467
 20
-2.4545572474
 10
-0.4409514357
 20
-2.4521280039
 10
-0.4411383006
 20
-2.4498482524
 10
-0.4414185979
 20
-2.4477179927
 10
-0.4418297007
 20
-2.4457559115
 10
-0.4423716088
 20
-2.4439433222
 10
-0.4430069494
 20
-2.4422989112
 10
-0.4437730954
 20
-2.4408039922
 10
-0.4446513604
 20
-2.439458565
 10
-0.4456417442
 20
-2.4382626298
 10
-0.446744247
 20
-2.437234873
 10
-0.4479588688
 20
-2.4363752945
 10
-0.4492856094
 20
-2.435665208
 10
-0.450724469
 20
-2.4351046133
 10
-0.4522754475
 20
-2.4347121971
 10
-0.4539385449
 20
-2.4344692727
 10
-0.4557137613
 20
-2.4343945268
 10
-0.4557137613
 20
-2.4343945268
 10
-0.4576571561
 20
-2.4344879592
 10
-0.4594510589
 20
-2.434786943
 10
-0.4610954699
 20
-2.4352914782
 10
-0.4625903889
 20
-2.4359828783
 10
-0.4639545025
 20
-2.4368424567
 10
-0.4651691243
 20
-2.4378702135
 10
-0.4662903135
 20
-2.4390287758
 10
-0.4672620109
 20
-2.4403555165
 10
-0.4681215894
 20
-2.441794376
 10
-0.4688503624
 20
-2.4433453545
 10
-0.4694670165
 20
-2.4450271385
 10
-0.4699528652
 20
-2.4468210413
 10
-0.4705882058
 20
-2.4506330849
 10
-0.4707937572
 20
-2.4546880528
 10
-0.4707937572
 20
-2.4546880528
 10
-0.4707376977
 20
-2.4571359827
 10
-0.4705321463
 20
-2.4594344208
 10
-0.4702331625
 20
-2.4615833669
 10
-0.4697846868
 20
-2.4635641346
 10
-0.4692240922
 20
-2.4653954104
 10
-0.4685140056
 20
-2.4670585079
 10
-0.4677104866
 20
-2.4685721134
 10
-0.4667574757
 20
-2.469936227
 10
-0.4657110324
 20
-2.4711321623
 10
-0.4645524701
 20
-2.4721786056
 10
-0.4633191619
 20
-2.4730568706
 10
-0.4619737348
 20
-2.4737669571
 10
-0.4605535617
 20
-2.4743275517
 10
-0.4590399562
 20
-2.4747386545
 10
-0.4574142317
 20
-2.4749815788
 10
-0.4557137613
 20
-2.4750563248
 10
-0.4557137613
 20
-2.4750563248
 10
-0.4538451125
 20
-2.4749628923
 10
-0.4521259556
 20
-2.4746639085
 10
-0.4505189176
 20
-2.4741780598
 10
-0.4490426851
 20
-2.4735053463
 10
-0.4476972579
 20
-2.4726457678
 10
-0.4464639497
 20
-2.4716366975
 10
-0.4453988199
 20
-2.4704781352
 10
-0.444445809
 20
-2.469170081
 10
-0.443604917
 20
-2.4677312215
 10
-0.4428948305
 20
-2.4661615565
 10
-0.4422781764
 20
-2.464461086
 10
-0.4417923277
 20
-2.4626484967
 10
-0.4411196141
 20
-2.4587430207
 10
-0.4408953763
 20
-2.4545572474
  0
LWPOLYLINE
  5
8D
330
1F
100
AcDbEntity
  8
0
  6
Continuous
 62
     7
100
AcDbPolyline
 90
       64
 70
   128
 43
0.0
 10
-0.3595717662
 20
-2.4858197419
 10
-0.3637575536
 20
-2.4867914393
 10
-0.3679620134
 20
-2.4875575853
 10
-0.3720730408
 20
-2.488043434
 10
-0.3759598303
 20
-2.4882116124
 10
-0.3759598303
 20
-2.4882116124
 10
-0.3790057278
 20
-2.4881368664
 10
-0.381846074
 20
-2.4878752556
 10
-0.3844621823
 20
-2.4874641528
 10
-0.3868540528
 20
-2.4868848717
 10
-0.3890403719
 20
-2.4861374122
 10
-0.3910211397
 20
-2.4852030878
 10
-0.3928150425
 20
-2.484100585
 10
-0.394403394
 20
-2.4828299038
 10
-0.3958048806
 20
-2.4813723577
 10
-0.3970008158
 20
-2.4797279468
 10
-0.3980098862
 20
-2.4779153574
 10
-0.3988134052
 20
-2.4758972167
 10
-0.3994300593
 20
-2.4736922111
 10
-0.399878535
 20
-2.4712629677
 10
-0.4001401458
 20
-2.4686655459
 10
-0.4002335783
 20
-2.4658438862
 10
-0.4002335783
 20
-2.4658438862
 10
-0.4002335783
 20
-2.4343945268
 10
-0.4002335783
 20
-2.4343945268
 10
-0.4169766716
 20
-2.4343945268
 10
-0.4169766716
 20
-2.4343945268
 10
-0.4169766716
 20
-2.4224351744
 10
-0.4169766716
 20
-2.4224351744
 10
-0.4002335783
 20
-2.4224351744
 10
-0.4002335783
 20
-2.4224351744
 10
-0.4002335783
 20
-2.4061779298
 10
-0.4002335783
 20
-2.4061779298
 10
-0.3846864202
 20
-2.4021042754
 10
-0.3846864202
 20
-2.4021042754
 10
-0.3846864202
 20
-2.4224351744
 10
-0.3846864202
 20
-2.4224351744
 10
-0.3595717803
 20
-2.4224351744
 10
-0.3595717803
 20
-2.4224351744
 10
-0.3595717803
 20
-2.4343945268
 10
-0.3595717803
 20
-2.4343945268
 10
-0.3846864202
 20
-2.4343945268
 10
-0.3846864202
 20
-2.4343945268
 10
-0.3846864202
 20
-2.4649843077
 10
-0.3846864202
 20
-2.4649843077
 10
-0.3845182418
 20
-2.467600416
 10
-0.3840510796
 20
-2.4698801676
 10
-0.3832475606
 20
-2.4718048759
 10
-0.3821450578
 20
-2.4734119138
 10
-0.3814536578
 20
-2.4740846274
 10
-0.3806501388
 20
-2.474645222
 10
-0.3797531874
 20
-2.4751497572
 10
-0.378744117
 20
-2.4755421735
 10
-0.3776229277
 20
-2.4758598438
 10
-0.3763896195
 20
-2.4760653951
 10
-0.3750628789
 20
-2.476214887
 10
-0.3736240193
 20
-2.47625226
 10
-0.3736240193
 20
-2.47625226
 10
-0.3698493487
 20
-2.4760653951
 10
-0.366186797
 20
-2.475523487
 10
-0.3627111103
 20
-2.4747386545
 10
-0.3595717803
 20
-2.4738603895
 10
-0.3595717803
 20
-2.4738603895
 10
-0.3595717803
 20
-2.4858197419
  0
LWPOLYLINE
  5
8E
330
1F
100
AcDbEntity
  8
0
  6
Continuous
 62
     7
100
AcDbPolyline
 90
       93
 70
   128
 43
0.0
 10
-0.2854236761
 20
-2.4495492686
 10
-0.2854424821
 20
-2.4513431714
 10
-0.2855172281
 20
-2.453622923
 10
-0.285629347
 20
-2.4560521664
 10
-0.2858162119
 20
-2.4583132315
 10
-0.2858162119
 20
-2.4583132315
 10
-0.3284774641
 20
-2.4583132315
 10
-0.3284774641
 20
-2.4583132315
 10
-0.3284027182
 20
-2.4604434911
 10
-0.3281411073
 20
-2.4624429453
 10
-0.3277486911
 20
-2.4643115941
 10
-0.32716941
 20
-2.4660494375
 10
-0.3264406369
 20
-2.467637789
 10
-0.3255810585
 20
-2.4691140216
 10
-0.3245906746
 20
-2.4704407622
 10
-0.3234694853
 20
-2.4716366975
 10
-0.3222174906
 20
-2.4727018273
 10
-0.3208346905
 20
-2.4736174652
 10
-0.3193397715
 20
-2.4744209842
 10
-0.3177327335
 20
-2.4750750113
 10
-0.3160135766
 20
-2.4755982329
 10
-0.3142009873
 20
-2.4759532762
 10
-0.312313652
 20
-2.4761775141
 10
-0.3103141977
 20
-2.47625226
 10
-0.3103141977
 20
-2.47625226
 10
-0.3054183379
 20
-2.4760467086
 10
-0.3002048077
 20
-2.475411368
 10
-0.2974765805
 20
-2.4749255194
 10
-0.2947109802
 20
-2.4743088653
 10
-0.2918893205
 20
-2.4735427192
 10
-0.2890116014
 20
-2.4726644543
 10
-0.2890116014
 20
-2.4726644543
 10
-0.2890116014
 20
-2.4846238067
 10
-0.2890116014
 20
-2.4846238067
 10
-0.2915903367
 20
-2.4853712662
 10
-0.2944119964
 20
-2.4860626662
 10
-0.2973644615
 20
-2.4866606339
 10
-0.3003729861
 20
-2.487202542
 10
-0.3034375701
 20
-2.4876510177
 10
-0.3065395272
 20
-2.487968688
 10
-0.3095854247
 20
-2.4881555529
 10
-0.3125565763
 20
-2.4882116124
 10
-0.3125565763
 20
-2.4882116124
 10
-0.316144382
 20
-2.4880808069
 10
-0.3195266364
 20
-2.4876883907
 10
-0.3227407123
 20
-2.4870530501
 10
-0.3257492369
 20
-2.4861374122
 10
-0.3285522101
 20
-2.4849601634
 10
-0.3311309454
 20
-2.4835399904
 10
-0.3335041294
 20
-2.4818768929
 10
-0.3356530755
 20
-2.4799708711
 10
-0.3375590973
 20
-2.477821925
 10
-0.3392408813
 20
-2.475411368
 10
-0.3406797408
 20
-2.4727765732
 10
-0.3418756761
 20
-2.4698988541
 10
-0.3428100005
 20
-2.4667782106
 10
-0.343482714
 20
-2.4634333292
 10
-0.3438938168
 20
-2.4598455235
 10
-0.3440246222
 20
-2.4560147934
 10
-0.3440246222
 20
-2.4560147934
 10
-0.3438938168
 20
-2.4521840634
 10
-0.343482714
 20
-2.4485401982
 10
-0.3428100005
 20
-2.4450831979
 10
-0.3418756761
 20
-2.441794376
 10
-0.3406797408
 20
-2.4387111055
 10
-0.3392595677
 20
-2.4358333863
 10
-0.3376338433
 20
-2.433217278
 10
-0.3357651945
 20
-2.4308067211
 10
-0.3336909943
 20
-2.4286390884
 10
-0.3313925563
 20
-2.4267517532
 10
-0.3289072534
 20
-2.4251073422
 10
-0.3261977126
 20
-2.4237432286
 10
-0.3233013069
 20
-2.4226407258
 10
-0.3202367229
 20
-2.4218558933
 10
-0.317022647
 20
-2.4213887311
 10
-0.3136403926
 20
-2.4212392392
 10
-0.3136403926
 20
-2.4212392392
 10
-0.3103141977
 20
-2.4213700446
 10
-0.3071748678
 20
-2.4217624608
 10
-0.3042410891
 20
-2.4224351744
 10
-0.3015128619
 20
-2.4233508123
 10
-0.2989714995
 20
-2.4245093746
 10
-0.296654375
 20
-2.4258548017
 10
-0.2945614883
 20
-2.4274244667
 10
-0.292674153
 20
-2.4291996831
 10
-0.2909923691
 20
-2.4311617643
 10
-0.289534823
 20
-2.4333107105
 10
-0.2883015148
 20
-2.4356465215
 10
-0.287273758
 20
-2.4381505109
 10
-0.286470239
 20
-2.4408039922
 10
-0.2858909579
 20
-2.4435882789
 10
-0.2855359146
 20
-2.446503371
 10
-0.2854237957
 20
-2.4495492686
  0
LWPOLYLINE
  5
8F
330
1F
100
AcDbEntity
  8
0
  6
Continuous
 62
     7
100
AcDbPolyline
 90
       30
 70
   128
 43
0.0
 10
-0.3009708965
 20
-2.4475498144
 10
-0.3010083267
 20
-2.445774598
 10
-0.3011765051
 20
-2.444130187
 10
-0.3014941754
 20
-2.442597895
 10
-0.3019426511
 20
-2.4411777219
 10
-0.3025032457
 20
-2.4398696678
 10
-0.3031572728
 20
-2.438692419
 10
-0.3039047323
 20
-2.4376272892
 10
-0.3047456243
 20
-2.4366929648
 10
-0.3056612622
 20
-2.4358707593
 10
-0.3066703326
 20
-2.4351419863
 10
-0.3077354624
 20
-2.4345440187
 10
-0.3088753382
 20
-2.43405817
 10
-0.3113232681
 20
-2.4334041429
 10
-0.3139393764
 20
-2.4331985915
 10
-0.3139393764
 20
-2.4331985915
 10
-0.3153969225
 20
-2.433254651
 10
-0.3167797226
 20
-2.4334415159
 10
-0.3180877768
 20
-2.4337218132
 10
-0.3193397715
 20
-2.4341329159
 10
-0.3205357067
 20
-2.4346748241
 10
-0.321656896
 20
-2.4353101647
 10
-0.3227033393
 20
-2.4360763107
 10
-0.3236937232
 20
-2.4369545756
 10
-0.3254128801
 20
-2.4390287758
 10
-0.3267209343
 20
-2.4414767057
 10
-0.3276739451
 20
-2.4443170519
 10
-0.3282158533
 20
-2.4475498144
 10
-0.3282158533
 20
-2.4475498144
 10
-0.3009709537
 20
-2.4475498144
  0
LWPOLYLINE
  5
90
330
1F
100
AcDbEntity
  8
0
  6
Continuous
 62
     7
100
AcDbPolyline
 90
       98
 70
   128
 43
0.0
 10
-0.2196472226
 20
-2.4846238067
 10
-0.2241881743
 20
-2.4862121581
 10
-0.2288971693
 20
-2.4873333474
 10
-0.2337930292
 20
-2.4879873745
 10
-0.2388944404
 20
-2.4882116124
 10
-0.2388944404
 20
-2.4882116124
 10
-0.2425569921
 20
-2.4880808069
 10
-0.2460326788
 20
-2.4876883907
 10
-0.2493028142
 20
-2.4870343636
 10
-0.2523860848
 20
-2.4861187257
 10
-0.2552451174
 20
-2.484941477
 10
-0.2578985988
 20
-2.4835026174
 10
-0.2603091557
 20
-2.481802147
 10
-0.2625141613
 20
-2.4798587522
 10
-0.2644575561
 20
-2.4776537466
 10
-0.266176713
 20
-2.4752245032
 10
-0.267634259
 20
-2.4725336489
 10
-0.2688675672
 20
-2.4695998703
 10
-0.2698392646
 20
-2.4664231673
 10
-0.2705119782
 20
-2.4629848535
 10
-0.2709417674
 20
-2.4593409883
 10
-0.2710725728
 20
-2.4554355123
 10
-0.2710725728
 20
-2.4554355123
 10
-0.2709230809
 20
-2.4516234688
 10
-0.2704746052
 20
-2.4480169766
 10
-0.2697271457
 20
-2.4445786628
 10
-0.2686807024
 20
-2.4413272138
 10
-0.2673539617
 20
-2.4382813163
 10
-0.2657842967
 20
-2.4354783431
 10
-0.2639530209
 20
-2.4328996077
 10
-0.2618975072
 20
-2.4305451102
 10
-0.2595990692
 20
-2.4284335371
 10
-0.2570577068
 20
-2.4265835748
 10
-0.2543294795
 20
-2.4249952233
 10
-0.2513583279
 20
-2.4236684826
 10
-0.2482003115
 20
-2.4226033528
 10
-0.2448554301
 20
-2.4218372068
 10
-0.2413423703
 20
-2.4213887311
 10
-0.2376424457
 20
-2.4212392392
 10
-0.2376424457
 20
-2.4212392392
 10
-0.2346712941
 20
-2.4212579257
 10
-0.2319430668
 20
-2.4213139851
 10
-0.2294764504
 20
-2.4214261041
 10
-0.2272527583
 20
-2.421575596
 10
-0.2232351634
 20
-2.4219493257
 10
-0.2196473577
 20
-2.4224351744
 10
-0.2196473577
 20
-2.4224351744
 10
-0.2196473577
 20
-2.4379823325
 10
-0.2196473577
 20
-2.4379823325
 10
-0.2236462661
 20
-2.4364500405
 10
-0.2279628449
 20
-2.4353288512
 10
-0.2323354831
 20
-2.4346187646
 10
-0.236465197
 20
-2.4343945268
 10
-0.236465197
 20
-2.4343945268
 10
-0.2385207106
 20
-2.4344879592
 10
-0.2404454189
 20
-2.4347682565
 10
-0.2422953812
 20
-2.4352354187
 10
-0.2440145381
 20
-2.4358894458
 10
-0.2456215761
 20
-2.4366929648
 10
-0.2470791222
 20
-2.4376646622
 10
-0.2484245493
 20
-2.438767165
 10
-0.249639171
 20
-2.4400378462
 10
-0.2507043008
 20
-2.4414393328
 10
-0.2516573117
 20
-2.4429716248
 10
-0.2524608307
 20
-2.4446534087
 10
-0.2531335443
 20
-2.4464846845
 10
-0.253656766
 20
-2.4484093928
 10
-0.2540304957
 20
-2.45044622
 10
-0.2542547336
 20
-2.4525577932
 10
-0.2543294795
 20
-2.4547814852
 10
-0.2543294795
 20
-2.4547814852
 10
-0.2542547336
 20
-2.4570799233
 10
-0.2540118092
 20
-2.4592662424
 10
-0.2536007065
 20
-2.4613217561
 10
-0.2530401119
 20
-2.4632651508
 10
-0.2523300253
 20
-2.4650777402
 10
-0.2514891333
 20
-2.4667408376
 10
-0.2504987495
 20
-2.4682731296
 10
-0.2493962467
 20
-2.4696559297
 10
-0.2481629385
 20
-2.4708892379
 10
-0.2467988248
 20
-2.4719730542
 10
-0.2453225923
 20
-2.4728886922
 10
-0.2437342408
 20
-2.4736735247
 10
-0.2420337704
 20
-2.4742714923
 10
-0.2402398675
 20
-2.4747012815
 10
-0.2383525322
 20
-2.4749628923
 10
-0.2363717645
 20
-2.4750563248
 10
-0.2363717645
 20
-2.4750563248
 10
-0.2343536238
 20
-2.4749815788
 10
-0.2322420507
 20
-2.4747947139
 10
-0.2300557315
 20
-2.4744770436
 10
-0.2278880989
 20
-2.4740285679
 10
-0.2257391528
 20
-2.4734866598
 10
-0.2236088932
 20
-2.4728886922
 10
-0.2215533795
 20
-2.4721972921
 10
-0.2196473577
 20
-2.4714685191
 10
-0.2196473577
 20
-2.4714685191
 10
-0.2196473577
 20
-2.4846238067
  0
LWPOLYLINE
  5
91
330
1F
100
AcDbEntity
  8
0
  6
Continuous
 62
     7
100
AcDbPolyline
 90
       64
 70
   128
 43
0.0
 10
-0.1478912382
 20
-2.4858197419
 10
-0.1520770169
 20
-2.4867914393
 10
-0.1562814767
 20
-2.4875575853
 10
-0.1603925041
 20
-2.488043434
 10
-0.1642792936
 20
-2.4882116124
 10
-0.1642792936
 20
-2.4882116124
 10
-0.1673251911
 20
-2.4881368664
 10
-0.1701655373
 20
-2.4878752556
 10
-0.1727816457
 20
-2.4874641528
 10
-0.1751735161
 20
-2.4868848717
 10
-0.1773598352
 20
-2.4861374122
 10
-0.179340603
 20
-2.4852030878
 10
-0.1811345058
 20
-2.484100585
 10
-0.1827228573
 20
-2.4828299038
 10
-0.1841243439
 20
-2.4813723577
 10
-0.1853202791
 20
-2.4797279468
 10
-0.1863293495
 20
-2.4779153574
 10
-0.1871328685
 20
-2.4758972167
 10
-0.1877495226
 20
-2.4736922111
 10
-0.1881979983
 20
-2.4712629677
 10
-0.1884596091
 20
-2.4686655459
 10
-0.1885530416
 20
-2.4658438862
 10
-0.1885530416
 20
-2.4658438862
 10
-0.1885530416
 20
-2.4343945268
 10
-0.1885530416
 20
-2.4343945268
 10
-0.2052961349
 20
-2.4343945268
 10
-0.2052961349
 20
-2.4343945268
 10
-0.2052961349
 20
-2.4224351744
 10
-0.2052961349
 20
-2.4224351744
 10
-0.1885530416
 20
-2.4224351744
 10
-0.1885530416
 20
-2.4224351744
 10
-0.1885530416
 20
-2.4061779298
 10
-0.1885530416
 20
-2.4061779298
 10
-0.1730058835
 20
-2.4021042754
 10
-0.1730058835
 20
-2.4021042754
 10
-0.1730058835
 20
-2.4224351744
 10
-0.1730058835
 20
-2.4224351744
 10
-0.1478912436
 20
-2.4224351744
 10
-0.1478912436
 20
-2.4224351744
 10
-0.1478912436
 20
-2.4343945268
 10
-0.1478912436
 20
-2.4343945268
 10
-0.1730058835
 20
-2.4343945268
 10
-0.1730058835
 20
-2.4343945268
 10
-0.1730058835
 20
-2.4649843077
 10
-0.1730058835
 20
-2.4649843077
 10
-0.1728377051
 20
-2.467600416
 10
-0.1723705429
 20
-2.4698801676
 10
-0.1715670239
 20
-2.4718048759
 10
-0.1704645211
 20
-2.4734119138
 10
-0.1697731211
 20
-2.4740846274
 10
-0.1689696021
 20
-2.474645222
 10
-0.1680726507
 20
-2.4751497572
 10
-0.1670635803
 20
-2.4755421735
 10
-0.165942391
 20
-2.4758598438
 10
-0.1647090828
 20
-2.4760653951
 10
-0.1633823422
 20
-2.476214887
 10
-0.1619434826
 20
-2.47625226
 10
-0.1619434826
 20
-2.47625226
 10
-0.158168812
 20
-2.4760653951
 10
-0.1545062603
 20
-2.475523487
 10
-0.1510305736
 20
-2.4747386545
 10
-0.1478912436
 20
-2.4738603895
 10
-0.1478912436
 20
-2.4738603895
 10
-0.1478912436
 20
-2.4858197419
  0
LWPOLYLINE
  5
92
330
1F
100
AcDbEntity
  8
0
  6
Continuous
 62
     7
100
AcDbPolyline
 90
      101
 70
   128
 43
0.0
 10
-0.0189170956
 20
-2.4870156771
 10
-0.0192908328
 20
-2.4785133251
 10
-0.0192908328
 20
-2.4785133251
 10
-0.02132766
 20
-2.4805314658
 10
-0.0234766061
 20
-2.4824001146
 10
-0.0257750441
 20
-2.484063212
 10
-0.02829772
 20
-2.4854833851
 10
-0.0310259473
 20
-2.4866232609
 10
-0.0340157854
 20
-2.4875015258
 10
-0.0372485478
 20
-2.4880247475
 10
-0.040780294
 20
-2.4882116124
 10
-0.040780294
 20
-2.4882116124
 10
-0.0431347915
 20
-2.4881181799
 10
-0.0453584836
 20
-2.4878565691
 10
-0.0474139973
 20
-2.4874080934
 10
-0.0493387056
 20
-2.4867727528
 10
-0.0511139219
 20
-2.4859692338
 10
-0.0527209599
 20
-2.4850349094
 10
-0.0541971925
 20
-2.4839510931
 10
-0.0555239331
 20
-2.4827364714
 10
-0.0567011819
 20
-2.4813723577
 10
-0.0577289387
 20
-2.4798961252
 10
-0.0585885172
 20
-2.4782704007
 10
-0.0593172902
 20
-2.4765138708
 10
-0.0598778848
 20
-2.4746265355
 10
-0.0602703011
 20
-2.4726644543
 10
-0.0605132254
 20
-2.4705902541
 10
-0.0605879714
 20
-2.468441308
 10
-0.0605879714
 20
-2.468441308
 10
-0.0604758525
 20
-2.4662176159
 10
-0.0601021227
 20
-2.4640873563
 10
-0.0595228416
 20
-2.4620505291
 10
-0.0586819496
 20
-2.4600884478
 10
-0.0575981333
 20
-2.4582384855
 10
-0.0562713926
 20
-2.4565006421
 10
-0.0547017276
 20
-2.4549309771
 10
-0.0528704518
 20
-2.4534734311
 10
-0.0507962516
 20
-2.4521653769
 10
-0.0484791271
 20
-2.4509881282
 10
-0.0459377647
 20
-2.4499790578
 10
-0.0431347915
 20
-2.4491194794
 10
-0.040088894
 20
-2.4484280793
 10
-0.0367813856
 20
-2.4479422306
 10
-0.0332309529
 20
-2.4476432468
 10
-0.0294189093
 20
-2.4475498144
 10
-0.0294189093
 20
-2.4475498144
 10
-0.0211221086
 20
-2.4475498144
 10
-0.0211221086
 20
-2.4475498144
 10
-0.0211221086
 20
-2.4437564573
 10
-0.0211221086
 20
-2.4437564573
 10
-0.021290287
 20
-2.4414580193
 10
-0.0218135087
 20
-2.4393838191
 10
-0.0227104601
 20
-2.4375712297
 10
-0.0240372007
 20
-2.4360576242
 10
-0.0248594062
 20
-2.4354222836
 10
-0.0257937306
 20
-2.4348430025
 10
-0.0268588604
 20
-2.4343571538
 10
-0.0280174227
 20
-2.4339460511
 10
-0.0293067904
 20
-2.4336096943
 10
-0.03074565
 20
-2.4333854564
 10
-0.032315315
 20
-2.4332359645
 10
-0.0340344719
 20
-2.4331985915
 10
-0.0340344719
 20
-2.4331985915
 10
-0.0368374451
 20
-2.4332733375
 10
-0.0396404183
 20
-2.4335162618
 10
-0.0424060185
 20
-2.4339086781
 10
-0.0451716187
 20
-2.4344692727
 10
-0.0505720138
 20
-2.4359641918
 10
-0.0558042304
 20
-2.4379823325
 10
-0.0558042304
 20
-2.4379823325
 10
-0.0558042304
 20
-2.4260229801
 10
-0.0558042304
 20
-2.4260229801
 10
-0.05341236
 20
-2.4250325963
 10
-0.0508523111
 20
-2.4241356448
 10
-0.0481053974
 20
-2.4233134394
 10
-0.0451903052
 20
-2.4226033528
 10
-0.0421444077
 20
-2.4220053852
 10
-0.0390424507
 20
-2.421575596
 10
-0.0358844342
 20
-2.4213326716
 10
-0.0326703582
 20
-2.4212392392
 10
-0.0326703582
 20
-2.4212392392
 10
-0.0292320444
 20
-2.4213326716
 10
-0.0260553415
 20
-2.421575596
 10
-0.0231215628
 20
-2.4220053852
 10
-0.020449395
 20
-2.4226033528
 10
-0.0180014651
 20
-2.4233694988
 10
-0.0157964595
 20
-2.4243038232
 10
-0.0137970053
 20
-2.4254250125
 10
-0.0120404754
 20
-2.4266956937
 10
-0.0104894969
 20
-2.4281345533
 10
-0.0091627563
 20
-2.4297415912
 10
-0.0080602535
 20
-2.4315354941
 10
-0.007163302
 20
-2.4334975753
 10
-0.006471902
 20
-2.435627835
 10
-0.0059673668
 20
-2.437926273
 10
-0.005668383
 20
-2.4404115759
 10
-0.0055749505
 20
-2.4430463707
 10
-0.0055749505
 20
-2.4430463707
 10
-0.0055749505
 20
-2.4870156771
 10
-0.0055749505
 20
-2.4870156771
 10
-0.018917103
 20
-2.4870156771
  0
LWPOLYLINE
  5
93
330
1F
100
AcDbEntity
  8
0
  6
Continuous
 62
     7
100
AcDbPolyline
 90
       35
 70
   128
 43
0.0
 10
-0.0211221027
 20
-2.4583132315
 10
-0.0301289959
 20
-2.4583132315
 10
-0.0301289959
 20
-2.4583132315
 10
-0.0319228987
 20
-2.4583692909
 10
-0.0335859961
 20
-2.4585000964
 10
-0.0350996017
 20
-2.4587617072
 10
-0.0364824018
 20
-2.459098064
 10
-0.03771571
 20
-2.4595091667
 10
-0.0388368993
 20
-2.4600137019
 10
-0.0398272832
 20
-2.4605742965
 10
-0.0407055481
 20
-2.4612096371
 10
-0.0421070347
 20
-2.4626671832
 10
-0.0430974186
 20
-2.4643302806
 10
-0.0436580132
 20
-2.46614287
 10
-0.0438448781
 20
-2.4680862647
 10
-0.0438448781
 20
-2.4680862647
 10
-0.0436953862
 20
-2.4699549135
 10
-0.0432469105
 20
-2.4715993245
 10
-0.0424807645
 20
-2.4730008111
 10
-0.0414343211
 20
-2.4741593733
 10
-0.0401075805
 20
-2.4750750113
 10
-0.0385752885
 20
-2.4757290383
 10
-0.0368187586
 20
-2.4761214546
 10
-0.0348379908
 20
-2.47625226
 10
-0.0348379908
 20
-2.47625226
 10
-0.0332870123
 20
-2.4761027681
 10
-0.0316986608
 20
-2.4756542924
 10
-0.0300729364
 20
-2.4749255194
 10
-0.0284285254
 20
-2.473879076
 10
-0.026728055
 20
-2.4725523354
 10
-0.0249341522
 20
-2.4709826704
 10
-0.0230655034
 20
-2.4691513945
 10
-0.0211221086
 20
-2.4670585079
 10
-0.0211221086
 20
-2.4670585079
 10
-0.0211221086
 20
-2.4583132315
  0
LWPOLYLINE
  5
94
330
1F
100
AcDbEntity
  8
0
  6
Continuous
 62
     7
100
AcDbPolyline
 90
       60
 70
   128
 43
0.0
 10
0.0494380489
 20
-2.4870156771
 10
0.0494380703
 20
-2.4449897655
 10
0.0494380703
 20
-2.4449897655
 10
0.0493072649
 20
-2.4425044626
 10
0.0489522216
 20
-2.4403555165
 10
0.0483355675
 20
-2.4385242406
 10
0.0474946755
 20
-2.4370480081
 10
0.0463921727
 20
-2.4358894458
 10
0.0450467456
 20
-2.4350485538
 10
0.0434770806
 20
-2.4345627052
 10
0.0416458048
 20
-2.4343945268
 10
0.0416458048
 20
-2.4343945268
 10
0.0397210965
 20
-2.4346000781
 10
0.0378524477
 20
-2.4351793593
 10
0.0360024854
 20
-2.4361884296
 10
0.0342085825
 20
-2.4375712297
 10
0.0324146797
 20
-2.4393090731
 10
0.0305647174
 20
-2.4413085273
 10
0.0286773821
 20
-2.4436256519
 10
0.0267153008
 20
-2.4462043872
 10
0.0267153008
 20
-2.4462043872
 10
0.0267153008
 20
-2.4870156771
 10
0.0267153008
 20
-2.4870156771
 10
0.0111681428
 20
-2.4870156771
 10
0.0111681428
 20
-2.4870156771
 10
0.0111681428
 20
-2.4224351744
 10
0.0111681428
 20
-2.4224351744
 10
0.0246411006
 20
-2.4224351744
 10
0.0246411006
 20
-2.4224351744
 10
0.0250148304
 20
-2.4319652833
 10
0.0250148304
 20
-2.4319652833
 10
0.0270142846
 20
-2.4296481588
 10
0.0290884848
 20
-2.4275365857
 10
0.0312934904
 20
-2.4256866233
 10
0.0336666744
 20
-2.4241356448
 10
0.0362267232
 20
-2.4229023366
 10
0.038973637
 20
-2.4219866987
 10
0.0419821616
 20
-2.4214261041
 10
0.0453457294
 20
-2.4212392392
 10
0.0453457294
 20
-2.4212392392
 10
0.0477375999
 20
-2.4213326716
 10
0.049961292
 20
-2.4216503419
 10
0.0520354921
 20
-2.4221548771
 10
0.0539415139
 20
-2.4228649636
 10
0.0556980438
 20
-2.4237432286
 10
0.0573050818
 20
-2.4248083584
 10
0.0587439413
 20
-2.4260229801
 10
0.0600519955
 20
-2.4274244667
 10
0.0612105578
 20
-2.4289754452
 10
0.0622196281
 20
-2.4306572292
 10
0.0630605201
 20
-2.432525878
 10
0.0637519201
 20
-2.4345253322
 10
0.0642938283
 20
-2.4366555918
 10
0.0646862445
 20
-2.4389166569
 10
0.0649104824
 20
-2.4412898409
 10
0.0649852283
 20
-2.4437938303
 10
0.0649852283
 20
-2.4437938303
 10
0.0649852283
 20
-2.4870156771
 10
0.0649852283
 20
-2.4870156771
 10
0.0494380703
 20
-2.4870156771
  0
LWPOLYLINE
  5
95
330
1F
100
AcDbEntity
  8
0
  6
Continuous
 62
     7
100
AcDbPolyline
 90
       58
 70
   128
 43
0.0
 10
0.1220911096
 20
-2.4870156771
 10
0.1217174061
 20
-2.4774855682
 10
0.1217174061
 20
-2.4774855682
 10
0.1196805789
 20
-2.4797840063
 10
0.1175876922
 20
-2.4818955794
 10
0.1153826866
 20
-2.4837268552
 10
0.1130095026
 20
-2.4852778337
 10
0.1104868268
 20
-2.486511142
 10
0.107777286
 20
-2.4874454664
 10
0.1048435074
 20
-2.4880247475
 10
0.1016107449
 20
-2.4882116124
 10
0.1016107449
 20
-2.4882116124
 10
0.0988825177
 20
-2.4880621205
 10
0.0963037823
 20
-2.4876323312
 10
0.0938745389
 20
-2.4869222447
 10
0.0915947873
 20
-2.4859318608
 10
0.0895019007
 20
-2.4846798661
 10
0.0875771924
 20
-2.4831662606
 10
0.0858206625
 20
-2.4814284172
 10
0.0842509975
 20
-2.4794476495
 10
0.0828495109
 20
-2.4772239574
 10
0.0816348892
 20
-2.4747760275
 10
0.0805884459
 20
-2.4721038597
 10
0.0797101809
 20
-2.469207454
 10
0.0790187809
 20
-2.466105497
 10
0.0785329322
 20
-2.4628353616
 10
0.0782339484
 20
-2.4593970478
 10
0.0781405159
 20
-2.4557718691
 10
0.0781405159
 20
-2.4557718691
 10
0.0782900078
 20
-2.4514739768
 10
0.07875717
 20
-2.4474937549
 10
0.0795233161
 20
-2.4437938303
 10
0.0806071324
 20
-2.4404115759
 10
0.081971246
 20
-2.4372909324
 10
0.0835595975
 20
-2.4344692727
 10
0.0853908733
 20
-2.4319092239
 10
0.0874650735
 20
-2.4296294723
 10
0.089744825
 20
-2.4276300181
 10
0.0922488144
 20
-2.4259108612
 10
0.0949396687
 20
-2.4244533151
 10
0.0978360743
 20
-2.4232947529
 10
0.1009193449
 20
-2.4223978014
 10
0.1041147343
 20
-2.4217437744
 10
0.1074596157
 20
-2.4213700446
 10
0.110916616
 20
-2.4212392392
 10
0.110916616
 20
-2.4212392392
 10
0.1133084865
 20
-2.4213139851
 10
0.1157190434
 20
-2.4215569095
 10
0.117998795
 20
-2.4219119527
 10
0.1199982492
 20
-2.4223791149
 10
0.1199982492
 20
-2.4223791149
 10
0.1199982492
 20
-2.3973205345
 10
0.1199982492
 20
-2.3973205345
 10
0.1355454072
 20
-2.3973205345
 10
0.1355454072
 20
-2.3973205345
 10
0.1355454072
 20
-2.4870156771
 10
0.1355454072
 20
-2.4870156771
 10
0.1220911358
 20
-2.4870156771
  0
LWPOLYLINE
  5
96
330
1F
100
AcDbEntity
  8
0
  6
Continuous
 62
     7
100
AcDbPolyline
 90
       50
 70
   128
 43
0.0
 10
0.0948835839
 20
-2.4550244096
 10
0.0949209822
 20
-2.4576031449
 10
0.0950517876
 20
-2.4599950154
 10
0.0952760255
 20
-2.4621813345
 10
0.0955750093
 20
-2.4641807887
 10
0.0959674255
 20
-2.4659933781
 10
0.0964532742
 20
-2.467637789
 10
0.0970138689
 20
-2.4690953351
 10
0.0976492095
 20
-2.4704033892
 10
0.0983779825
 20
-2.4715245785
 10
0.0991815015
 20
-2.4724962759
 10
0.1000597664
 20
-2.4732997949
 10
0.1010127773
 20
-2.4739351355
 10
0.1020592206
 20
-2.4744209842
 10
0.1031617234
 20
-2.4747760275
 10
0.1043389722
 20
-2.4749815788
 10
0.1055909669
 20
-2.4750563248
 10
0.1055909669
 20
-2.4750563248
 10
0.1074596157
 20
-2.4748507734
 10
0.109272205
 20
-2.4742528058
 10
0.1110474214
 20
-2.4732624219
 10
0.1127665783
 20
-2.4718796218
 10
0.1144857352
 20
-2.4701417784
 10
0.1162796381
 20
-2.4680862647
 10
0.1181109139
 20
-2.4657504537
 10
0.1199982492
 20
-2.4631156589
 10
0.1199982492
 20
-2.4631156589
 10
0.1199982492
 20
-2.434786943
 10
0.1199982492
 20
-2.434786943
 10
0.1180361679
 20
-2.4341516024
 10
0.1156442975
 20
-2.4336470672
 10
0.1130655621
 20
-2.4333107105
 10
0.1104494538
 20
-2.4331985915
 10
0.1104494538
 20
-2.4331985915
 10
0.1086929239
 20
-2.433292024
 10
0.107048513
 20
-2.4335723213
 10
0.105478848
 20
-2.43405817
 10
0.1040026154
 20
-2.4347308836
 10
0.1026198153
 20
-2.4355717755
 10
0.1013491341
 20
-2.4365808459
 10
0.1001718854
 20
-2.4377394081
 10
0.0991067555
 20
-2.4390661488
 10
0.0981537446
 20
-2.4405423813
 10
0.0973128527
 20
-2.4421867923
 10
0.0965840796
 20
-2.4439806951
 10
0.0959674255
 20
-2.4459240899
 10
0.0955002633
 20
-2.4480169766
 10
0.0951639066
 20
-2.4502219821
 10
0.0949583552
 20
-2.4525577932
 10
0.0948836092
 20
-2.4550244096
  0
LWPOLYLINE
  5
97
330
1F
100
AcDbEntity
  8
0
  6
Continuous
 62
     7
100
AcDbPolyline
 90
       40
 70
   128
 43
0.0
 10
0.2826454015
 20
-2.4447094682
 10
0.2824959493
 20
-2.4493997767
 10
0.2820474736
 20
-2.4538658473
 10
0.2813187006
 20
-2.4581263666
 10
0.2802722572
 20
-2.4621439615
 10
0.2789268301
 20
-2.4659186321
 10
0.2772637327
 20
-2.4693943189
 10
0.2752455919
 20
-2.4725897084
 10
0.2729097809
 20
-2.4755048005
 10
0.2702376131
 20
-2.4781022223
 10
0.2672104021
 20
-2.4803819739
 10
0.2638281477
 20
-2.4823627416
 10
0.2600908501
 20
-2.484025839
 10
0.2559985092
 20
-2.4853338932
 10
0.2515137521
 20
-2.4862682176
 10
0.2466365787
 20
-2.4868288122
 10
0.2413669891
 20
-2.4870156771
 10
0.2413669891
 20
-2.4870156771
 10
0.220456809
 20
-2.4870156771
 10
0.220456809
 20
-2.4870156771
 10
0.220456809
 20
-2.4044961459
 10
0.220456809
 20
-2.4044961459
 10
0.2448426759
 20
-2.4044961459
 10
0.2448426759
 20
-2.4044961459
 10
0.2494208654
 20
-2.4046456378
 10
0.2537000712
 20
-2.4050941135
 10
0.2576989797
 20
-2.4058228865
 10
0.2613802178
 20
-2.4068693299
 10
0.2647811586
 20
-2.408214757
 10
0.2678831156
 20
-2.409859168
 10
0.2706860889
 20
-2.4118586222
 10
0.2731900783
 20
-2.4141570602
 10
0.2754137703
 20
-2.4167731685
 10
0.2773197921
 20
-2.4197443201
 10
0.2789455166
 20
-2.423033142
 10
0.2802722572
 20
-2.4266583207
 10
0.2813187006
 20
-2.4306198562
 10
0.2820474736
 20
-2.4349551214
 10
0.2824959493
 20
-2.4396454299
 10
0.2826454412
 20
-2.4447094682
  0
LWPOLYLINE
  5
98
330
1F
100
AcDbEntity
  8
0
  6
Continuous
 62
     7
100
AcDbPolyline
 90
       40
 70
   128
 43
0.0
 10
0.2659022749
 20
-2.4457185385
 10
0.265827602
 20
-2.4424857761
 10
0.2656407371
 20
-2.4394211921
 10
0.2653043803
 20
-2.4365434729
 10
0.2648372181
 20
-2.4338526186
 10
0.264220564
 20
-2.4313486292
 10
0.2633983585
 20
-2.4290315047
 10
0.2624079746
 20
-2.426938618
 10
0.2612307259
 20
-2.4250325963
 10
0.2598479258
 20
-2.4233321258
 10
0.2582595743
 20
-2.4218558933
 10
0.256446985
 20
-2.4205852121
 10
0.2544288442
 20
-2.4195387688
 10
0.2521677792
 20
-2.4187165633
 10
0.2496451033
 20
-2.4181185957
 10
0.2468795031
 20
-2.4177635524
 10
0.2438336055
 20
-2.4176514335
 10
0.2438336055
 20
-2.4176514335
 10
0.236003967
 20
-2.4176514335
 10
0.236003967
 20
-2.4176514335
 10
0.236003967
 20
-2.4738603895
 10
0.236003967
 20
-2.4738603895
 10
0.2427684757
 20
-2.4738603895
 10
0.2427684757
 20
-2.4738603895
 10
0.2455153894
 20
-2.4737482706
 10
0.2480941248
 20
-2.4734306003
 10
0.2505046818
 20
-2.4729073786
 10
0.2527470603
 20
-2.4721599191
 10
0.2548212605
 20
-2.4712069082
 10
0.2567085958
 20
-2.470048346
 10
0.2584464392
 20
-2.4686655459
 10
0.2599974177
 20
-2.4670771944
 10
0.2613802178
 20
-2.465264605
 10
0.262576153
 20
-2.4631904049
 10
0.2636039099
 20
-2.4608919668
 10
0.2644261154
 20
-2.4583506045
 10
0.2650801424
 20
-2.4555476312
 10
0.2655286182
 20
-2.4525204202
 10
0.2658089155
 20
-2.4492315983
 10
0.2659023479
 20
-2.4457185385
  0
LWPOLYLINE
  5
99
330
1F
100
AcDbEntity
  8
0
  6
Continuous
 62
     7
100
AcDbPolyline
 90
       93
 70
   128
 43
0.0
 10
0.3496176145
 20
-2.4495492686
 10
0.3495991279
 20
-2.4513431714
 10
0.349524382
 20
-2.453622923
 10
0.349412263
 20
-2.4560521664
 10
0.3492253981
 20
-2.4583132315
 10
0.3492253981
 20
-2.4583132315
 10
0.3065641459
 20
-2.4583132315
 10
0.3065641459
 20
-2.4583132315
 10
0.3066388919
 20
-2.4604434911
 10
0.3069005027
 20
-2.4624429453
 10
0.307292919
 20
-2.4643115941
 10
0.3078722001
 20
-2.4660494375
 10
0.3086009731
 20
-2.467637789
 10
0.3094605516
 20
-2.4691140216
 10
0.3104509354
 20
-2.4704407622
 10
0.3115721247
 20
-2.4716366975
 10
0.3128241194
 20
-2.4727018273
 10
0.3142069195
 20
-2.4736174652
 10
0.3157018386
 20
-2.4744209842
 10
0.3173088766
 20
-2.4750750113
 10
0.3190280335
 20
-2.4755982329
 10
0.3208406228
 20
-2.4759532762
 10
0.3227279581
 20
-2.4761775141
 10
0.3247274123
 20
-2.47625226
 10
0.3247274123
 20
-2.47625226
 10
0.3296232722
 20
-2.4760467086
 10
0.3348368023
 20
-2.475411368
 10
0.3375650296
 20
-2.4749255194
 10
0.3403306298
 20
-2.4743088653
 10
0.3431522895
 20
-2.4735427192
 10
0.3460300087
 20
-2.4726644543
 10
0.3460300087
 20
-2.4726644543
 10
0.3460300087
 20
-2.4846238067
 10
0.3460300087
 20
-2.4846238067
 10
0.3434512733
 20
-2.4853712662
 10
0.3406296136
 20
-2.4860626662
 10
0.3376771485
 20
-2.4866606339
 10
0.334668624
 20
-2.487202542
 10
0.3316040399
 20
-2.4876510177
 10
0.3285020829
 20
-2.487968688
 10
0.3254561853
 20
-2.4881555529
 10
0.3224850337
 20
-2.4882116124
 10
0.3224850337
 20
-2.4882116124
 10
0.318897228
 20
-2.4880808069
 10
0.3155149737
 20
-2.4876883907
 10
0.3123008978
 20
-2.4870530501
 10
0.3092923732
 20
-2.4861374122
 10
0.3064894
 20
-2.4849601634
 10
0.3039106646
 20
-2.4835399904
 10
0.3015374806
 20
-2.4818768929
 10
0.2993885345
 20
-2.4799708711
 10
0.2974825127
 20
-2.477821925
 10
0.2958007288
 20
-2.475411368
 10
0.2943618692
 20
-2.4727765732
 10
0.293165934
 20
-2.4698988541
 10
0.2922316096
 20
-2.4667782106
 10
0.291558896
 20
-2.4634333292
 10
0.2911477933
 20
-2.4598455235
 10
0.2910169879
 20
-2.4560147934
 10
0.2910169879
 20
-2.4560147934
 10
0.2911477933
 20
-2.4521840634
 10
0.291558896
 20
-2.4485401982
 10
0.2922316096
 20
-2.4450831979
 10
0.293165934
 20
-2.441794376
 10
0.2943618692
 20
-2.4387111055
 10
0.2957820423
 20
-2.4358333863
 10
0.2974077668
 20
-2.433217278
 10
0.2992764156
 20
-2.4308067211
 10
0.3013506158
 20
-2.4286390884
 10
0.3036490538
 20
-2.4267517532
 10
0.3061343567
 20
-2.4251073422
 10
0.3088438975
 20
-2.4237432286
 10
0.3117403031
 20
-2.4226407258
 10
0.3148048872
 20
-2.4218558933
 10
0.3180189631
 20
-2.4213887311
 10
0.3214012174
 20
-2.4212392392
 10
0.3214012174
 20
-2.4212392392
 10
0.3247274123
 20
-2.4213700446
 10
0.3278667423
 20
-2.4217624608
 10
0.3308005209
 20
-2.4224351744
 10
0.3335287482
 20
-2.4233508123
 10
0.3360701106
 20
-2.4245093746
 10
0.3383872351
 20
-2.4258548017
 10
0.3404801217
 20
-2.4274244667
 10
0.342367457
 20
-2.4291996831
 10
0.344049241
 20
-2.4311617643
 10
0.345506787
 20
-2.4333107105
 10
0.3467400952
 20
-2.4356465215
 10
0.3477678521
 20
-2.4381505109
 10
0.3485713711
 20
-2.4408039922
 10
0.3491506522
 20
-2.4435882789
 10
0.3495056955
 20
-2.446503371
 10
0.3496178144
 20
-2.4495492686
  0
LWPOLYLINE
  5
9A
330
1F
100
AcDbEntity
  8
0
  6
Continuous
 62
     7
100
AcDbPolyline
 90
       30
 70
   128
 43
0.0
 10
0.3340705408
 20
-2.4475498144
 10
0.3340332834
 20
-2.445774598
 10
0.333865105
 20
-2.444130187
 10
0.3335474347
 20
-2.442597895
 10
0.333098959
 20
-2.4411777219
 10
0.3325383643
 20
-2.4398696678
 10
0.3318843372
 20
-2.438692419
 10
0.3311368777
 20
-2.4376272892
 10
0.3302959857
 20
-2.4366929648
 10
0.3293803478
 20
-2.4358707593
 10
0.3283712775
 20
-2.4351419863
 10
0.3273061477
 20
-2.4345440187
 10
0.3261662719
 20
-2.43405817
 10
0.323718342
 20
-2.4334041429
 10
0.3211022336
 20
-2.4331985915
 10
0.3211022336
 20
-2.4331985915
 10
0.3196446876
 20
-2.433254651
 10
0.3182618874
 20
-2.4334415159
 10
0.3169538333
 20
-2.4337218132
 10
0.3157018386
 20
-2.4341329159
 10
0.3145059033
 20
-2.4346748241
 10
0.3133847141
 20
-2.4353101647
 10
0.3123382707
 20
-2.4360763107
 10
0.3113478869
 20
-2.4369545756
 10
0.30962873
 20
-2.4390287758
 10
0.3083206758
 20
-2.4414767057
 10
0.3073676649
 20
-2.4443170519
 10
0.3068257568
 20
-2.4475498144
 10
0.3068257568
 20
-2.4475498144
 10
0.3340706563
 20
-2.4475498144
  0
LWPOLYLINE
  5
9B
330
1F
100
AcDbEntity
  8
0
  6
Continuous
 62
     7
100
AcDbPolyline
 90
      146
 70
   128
 43
0.0
 10
0.4165901208
 20
-2.4678807134
 10
0.4164406957
 20
-2.4705341947
 10
0.41599222
 20
-2.4729634381
 10
0.415226074
 20
-2.4752245032
 10
0.4141796306
 20
-2.4772613304
 10
0.4128715765
 20
-2.4791112927
 10
0.4113766574
 20
-2.4807743901
 10
0.409676187
 20
-2.4822693092
 10
0.4077888517
 20
-2.4835773633
 10
0.405733338
 20
-2.4847172391
 10
0.4035470189
 20
-2.48567025
 10
0.4012112079
 20
-2.486473769
 10
0.398763278
 20
-2.4871091096
 10
0.3962406021
 20
-2.4875949583
 10
0.3936805532
 20
-2.487931315
 10
0.3910831314
 20
-2.4881368664
 10
0.3884670231
 20
-2.4882116124
 10
0.3884670231
 20
-2.4882116124
 10
0.3850473958
 20
-2.4881742394
 10
0.3817959468
 20
-2.4880621205
 10
0.3787313628
 20
-2.4878565691
 10
0.3758162707
 20
-2.4875949583
 10
0.3703411297
 20
-2.4868474987
 10
0.3651649725
 20
-2.4858197419
 10
0.3651649725
 20
-2.4858197419
 10
0.3651649725
 20
-2.4714685191
 10
0.3651649725
 20
-2.4714685191
 10
0.3680987511
 20
-2.4726457678
 10
0.3710325297
 20
-2.4736361517
 10
0.3739476218
 20
-2.4744770436
 10
0.3768814005
 20
-2.4751310707
 10
0.3797591196
 20
-2.4756169194
 10
0.3825620928
 20
-2.4759719627
 10
0.3852716336
 20
-2.4761775141
 10
0.3879064284
 20
-2.47625226
 10
0.3879064284
 20
-2.47625226
 10
0.3907094016
 20
-2.4761401411
 10
0.3931573316
 20
-2.4757850978
 10
0.3951941588
 20
-2.4752058167
 10
0.3968759427
 20
-2.4743836112
 10
0.3981839969
 20
-2.4733745408
 10
0.3990996348
 20
-2.4722159786
 10
0.3996602294
 20
-2.4709079244
 10
0.3998470943
 20
-2.4694690648
 10
0.3998470943
 20
-2.4694690648
 10
0.3996976024
 20
-2.4680675782
 10
0.3992117537
 20
-2.4668155835
 10
0.3983148023
 20
-2.4656383348
 10
0.3968759427
 20
-2.4645171455
 10
0.3959229318
 20
-2.4639565509
 10
0.3948017425
 20
-2.4633959562
 10
0.3935123748
 20
-2.4628353616
 10
0.3920361423
 20
-2.4622560805
 10
0.3903543584
 20
-2.4616581128
 10
0.3884296501
 20
-2.4610040858
 10
0.3862620175
 20
-2.4603313722
 10
0.3838514605
 20
-2.4596212856
 10
0.3838514605
 20
-2.4596212856
 10
0.381571709
 20
-2.4589298856
 10
0.3794601358
 20
-2.4582011125
 10
0.3774606816
 20
-2.4574349665
 10
0.3756294058
 20
-2.4566314476
 10
0.3739476218
 20
-2.4557531826
 10
0.3723966433
 20
-2.4548001717
 10
0.3710138432
 20
-2.4537911014
 10
0.369780535
 20
-2.4526885986
 10
0.3686967187
 20
-2.4515113498
 10
0.3677623943
 20
-2.4502219821
 10
0.3669775618
 20
-2.448876555
 10
0.3663235347
 20
-2.4474190089
 10
0.3658189995
 20
-2.4458493439
 10
0.3654639563
 20
-2.4441488735
 10
0.3652397184
 20
-2.4423362842
 10
0.3651649725
 20
-2.4403742029
 10
0.3651649725
 20
-2.4403742029
 10
0.3652770914
 20
-2.4384494947
 10
0.3656134482
 20
-2.4365621594
 10
0.3661553563
 20
-2.43474957
 10
0.3669215023
 20
-2.4329930402
 10
0.3679118862
 20
-2.4313112562
 10
0.3691078214
 20
-2.4297229048
 10
0.3705279945
 20
-2.4282653587
 10
0.372153719
 20
-2.4269012451
 10
0.3740036813
 20
-2.4256492504
 10
0.376059195
 20
-2.4245467476
 10
0.3783389465
 20
-2.4235750502
 10
0.3808242495
 20
-2.4227528447
 10
0.3835337902
 20
-2.4220988176
 10
0.3864675688
 20
-2.4216129689
 10
0.3896068988
 20
-2.4213326716
 10
0.3929704667
 20
-2.4212392392
 10
0.3929704667
 20
-2.4212392392
 10
0.3958855588
 20
-2.4212766122
 10
0.3986511591
 20
-2.4214261041
 10
0.4012112079
 20
-2.4216503419
 10
0.4036217649
 20
-2.4219866987
 10
0.4079944031
 20
-2.4227715312
 10
0.4118251331
 20
-2.4236311096
 10
0.4118251331
 20
-2.4236311096
 10
0.4118251331
 20
-2.4367863972
 10
0.4118251331
 20
-2.4367863972
 10
0.4091529653
 20
-2.4358707593
 10
0.40657423
 20
-2.4351046133
 10
0.4040702406
 20
-2.4344879592
 10
0.4016409971
 20
-2.434020797
 10
0.3969133157
 20
-2.4334041429
 10
0.3922416937
 20
-2.4331985915
 10
0.3922416937
 20
-2.4331985915
 10
0.3900180016
 20
-2.433292024
 10
0.3880372338
 20
-2.4335910078
 10
0.3862620175
 20
-2.4340768565
 10
0.3847297255
 20
-2.43474957
 10
0.3834964172
 20
-2.435590462
 10
0.3826181523
 20
-2.4365995324
 10
0.3820762441
 20
-2.4377394081
 10
0.3819080658
 20
-2.4390474623
 10
0.3819080658
 20
-2.4390474623
 10
0.3820575577
 20
-2.4404302624
 10
0.3824686604
 20
-2.4416448841
 10
0.3833095524
 20
-2.4427473869
 10
0.384673666
 20
-2.4438498897
 10
0.3855893039
 20
-2.4443917979
 10
0.3866544337
 20
-2.444933706
 10
0.3878877419
 20
-2.4455129872
 10
0.3892892285
 20
-2.4460922683
 10
0.39087758
 20
-2.4466902359
 10
0.3927275423
 20
-2.44730689
 10
0.394783056
 20
-2.4479609171
 10
0.3971001805
 20
-2.4486336307
 10
0.3971001805
 20
-2.4486336307
 10
0.3997349754
 20
-2.4494371497
 10
0.4021455323
 20
-2.4502780416
 10
0.4043318514
 20
-2.4511376201
 10
0.4063126192
 20
-2.452015885
 10
0.4080878355
 20
-2.4529502094
 10
0.409676187
 20
-2.4539219068
 10
0.4110963601
 20
-2.4549870366
 10
0.4123109818
 20
-2.4560895394
 10
0.4133761116
 20
-2.4572667881
 10
0.4142730631
 20
-2.4585187828
 10
0.4150018361
 20
-2.4598455235
 10
0.4155811172
 20
-2.4612656966
 10
0.4160295929
 20
-2.4627606156
 10
0.4163472632
 20
-2.4643676536
 10
0.4165341281
 20
-2.466068124
 10
0.4165901876
 20
-2.4678807134
  0
LWPOLYLINE
  5
9C
330
1F
100
AcDbEntity
  8
0
  6
Continuous
 62
     7
100
AcDbPolyline
 90
       64
 70
   128
 43
0.0
 10
0.4871503457
 20
-2.4858197419
 10
0.4829645932
 20
-2.4867914393
 10
0.4787601333
 20
-2.4875575853
 10
0.474649106
 20
-2.488043434
 10
0.4707623165
 20
-2.4882116124
 10
0.4707623165
 20
-2.4882116124
 10
0.4677164189
 20
-2.4881368664
 10
0.4648760727
 20
-2.4878752556
 10
0.4622599644
 20
-2.4874641528
 10
0.4598680939
 20
-2.4868848717
 10
0.4576817748
 20
-2.4861374122
 10
0.4557010071
 20
-2.4852030878
 10
0.4539071042
 20
-2.484100585
 10
0.4523187527
 20
-2.4828299038
 10
0.4509172661
 20
-2.4813723577
 10
0.4497213309
 20
-2.4797279468
 10
0.4487122606
 20
-2.4779153574
 10
0.4479087416
 20
-2.4758972167
 10
0.4472920875
 20
-2.4736922111
 10
0.4468436117
 20
-2.4712629677
 10
0.4465820009
 20
-2.4686655459
 10
0.4464885685
 20
-2.4658438862
 10
0.4464885685
 20
-2.4658438862
 10
0.4464885685
 20
-2.4343945268
 10
0.4464885685
 20
-2.4343945268
 10
0.4297454752
 20
-2.4343945268
 10
0.4297454752
 20
-2.4343945268
 10
0.4297454752
 20
-2.4224351744
 10
0.4297454752
 20
-2.4224351744
 10
0.4464885685
 20
-2.4224351744
 10
0.4464885685
 20
-2.4224351744
 10
0.4464885685
 20
-2.4061779298
 10
0.4464885685
 20
-2.4061779298
 10
0.4620357265
 20
-2.4021042754
 10
0.4620357265
 20
-2.4021042754
 10
0.4620357265
 20
-2.4224351744
 10
0.4620357265
 20
-2.4224351744
 10
0.4871503665
 20
-2.4224351744
 10
0.4871503665
 20
-2.4224351744
 10
0.4871503665
 20
-2.4343945268
 10
0.4871503665
 20
-2.4343945268
 10
0.4620357265
 20
-2.4343945268
 10
0.4620357265
 20
-2.4343945268
 10
0.4620357265
 20
-2.4649843077
 10
0.4620357265
 20
-2.4649843077
 10
0.4622039049
 20
-2.467600416
 10
0.4626710671
 20
-2.4698801676
 10
0.4634745861
 20
-2.4718048759
 10
0.4645770889
 20
-2.4734119138
 10
0.465268489
 20
-2.4740846274
 10
0.466072008
 20
-2.474645222
 10
0.4669689594
 20
-2.4751497572
 10
0.4679780297
 20
-2.4755421735
 10
0.469099219
 20
-2.4758598438
 10
0.4703325272
 20
-2.4760653951
 10
0.4716592679
 20
-2.476214887
 10
0.4730981275
 20
-2.47625226
 10
0.4730981275
 20
-2.47625226
 10
0.4768727981
 20
-2.4760653951
 10
0.4805353497
 20
-2.475523487
 10
0.4840110365
 20
-2.4747386545
 10
0.4871503665
 20
-2.4738603895
 10
0.4871503665
 20
-2.4738603895
 10
0.4871503665
 20
-2.4858197419
  0
LWPOLYLINE
  5
9D
330
1F
100
AcDbEntity
  8
0
  6
Continuous
 62
     7
100
AcDbPolyline
 90
       58
 70
   128
 43
0.0
 10
0.5469471216
 20
-2.4475498144
 10
0.5469658147
 20
-2.4458493439
 10
0.5469284418
 20
-2.4442983654
 10
0.5467976364
 20
-2.4428595059
 10
0.546592085
 20
-2.4415701382
 10
0.5459941174
 20
-2.4393090731
 10
0.5450971659
 20
-2.4374777973
 10
0.5439572902
 20
-2.4360949972
 10
0.5425558036
 20
-2.4351419863
 10
0.5409487656
 20
-2.4345813916
 10
0.5391174898
 20
-2.4343945268
 10
0.5391174898
 20
-2.4343945268
 10
0.5374170193
 20
-2.4345627052
 10
0.535679176
 20
-2.4350859268
 10
0.5339226461
 20
-2.4359641918
 10
0.5321287432
 20
-2.4371788135
 10
0.5302974674
 20
-2.4388045379
 10
0.5283540726
 20
-2.4408600516
 10
0.5263359319
 20
-2.4433827275
 10
0.5242243588
 20
-2.4463538791
 10
0.5242243588
 20
-2.4463538791
 10
0.5242243588
 20
-2.4870156771
 10
0.5242243588
 20
-2.4870156771
 10
0.5086772007
 20
-2.4870156771
 10
0.5086772007
 20
-2.4870156771
 10
0.5086772007
 20
-2.4224351744
 10
0.5086772007
 20
-2.4224351744
 10
0.5224117694
 20
-2.4224351744
 10
0.5224117694
 20
-2.4224351744
 10
0.5229723641
 20
-2.4320026563
 10
0.5229723641
 20
-2.4320026563
 10
0.524654148
 20
-2.4296668453
 10
0.5265227968
 20
-2.4275739586
 10
0.5286156835
 20
-2.4257426828
 10
0.530932808
 20
-2.4241917043
 10
0.5334928569
 20
-2.4229210231
 10
0.5363145166
 20
-2.4220053852
 10
0.5394164736
 20
-2.4214261041
 10
0.5427987279
 20
-2.4212392392
 10
0.5427987279
 20
-2.4212392392
 10
0.5451532254
 20
-2.4213513581
 10
0.547358231
 20
-2.4216503419
 10
0.5494324312
 20
-2.4221922501
 10
0.5513758259
 20
-2.4229210231
 10
0.5531697288
 20
-2.4238553475
 10
0.5548328262
 20
-2.4249952233
 10
0.5563277453
 20
-2.4263219639
 10
0.5576731724
 20
-2.4278729424
 10
0.5588691076
 20
-2.4296107858
 10
0.5598968645
 20
-2.4315541806
 10
0.5607564429
 20
-2.4337218132
 10
0.561447843
 20
-2.4360949972
 10
0.5619710647
 20
-2.4386737325
 10
0.5623261079
 20
-2.4414393328
 10
0.5624942863
 20
-2.4443917979
 10
0.5624942863
 20
-2.4475498144
 10
0.5624942863
 20
-2.4475498144
 10
0.5469471283
 20
-2.4475498144
  0
LWPOLYLINE
  5
9E
330
1F
100
AcDbEntity
  8
0
  6
Continuous
 62
     7
100
AcDbPolyline
 90
       68
 70
   128
 43
0.0
 10
0.6330541269
 20
-2.4541835176
 10
0.6329236598
 20
-2.4579021287
 10
0.6325312435
 20
-2.461433875
 10
0.63185853
 20
-2.4648348158
 10
0.6309428921
 20
-2.4680488918
 10
0.6297656433
 20
-2.4710761028
 10
0.6283641567
 20
-2.473879076
 10
0.6267197458
 20
-2.4764578114
 10
0.624851097
 20
-2.4788123089
 10
0.6227582103
 20
-2.480923882
 10
0.6204410858
 20
-2.4827925308
 10
0.6178810369
 20
-2.4843995688
 10
0.6150967502
 20
-2.4857636824
 10
0.6121069121
 20
-2.4868288122
 10
0.6089302091
 20
-2.4875949583
 10
0.6055292683
 20
-2.4880621205
 10
0.6019414626
 20
-2.4882116124
 10
0.6019414626
 20
-2.4882116124
 10
0.5985218353
 20
-2.4880808069
 10
0.5952890729
 20
-2.4876883907
 10
0.5922431753
 20
-2.4870530501
 10
0.5893841426
 20
-2.4861374122
 10
0.5867306613
 20
-2.4849601634
 10
0.5842827314
 20
-2.4835399904
 10
0.5820403528
 20
-2.4818582064
 10
0.5800035256
 20
-2.4799148117
 10
0.5781909363
 20
-2.4777098061
 10
0.5766025848
 20
-2.4752618761
 10
0.5752384712
 20
-2.4725336489
 10
0.5740985954
 20
-2.4695624973
 10
0.573201644
 20
-2.4663297349
 10
0.5725663034
 20
-2.4628353616
 10
0.5721925736
 20
-2.4590793775
 10
0.5720617682
 20
-2.455080469
 10
0.5720617682
 20
-2.455080469
 10
0.5721925736
 20
-2.4513431714
 10
0.5726036764
 20
-2.4477927387
 10
0.5732577034
 20
-2.4444104844
 10
0.5741920278
 20
-2.4411964084
 10
0.5753879631
 20
-2.4381878838
 10
0.5768081362
 20
-2.4354035971
 10
0.5784525471
 20
-2.4328435483
 10
0.5803398824
 20
-2.4305264237
 10
0.5824514556
 20
-2.4284335371
 10
0.5848059531
 20
-2.4266022612
 10
0.5873473154
 20
-2.4250139098
 10
0.5901316022
 20
-2.4236684826
 10
0.5931214402
 20
-2.4226033528
 10
0.5962794567
 20
-2.4218372068
 10
0.5996430246
 20
-2.4213887311
 10
0.6031747708
 20
-2.4212392392
 10
0.6031747708
 20
-2.4212392392
 10
0.6066130846
 20
-2.4213700446
 10
0.6098645335
 20
-2.4217624608
 10
0.6129291176
 20
-2.4224351744
 10
0.6157881503
 20
-2.4233508123
 10
0.6184416316
 20
-2.4245280611
 10
0.620908248
 20
-2.4259669207
 10
0.6231319401
 20
-2.4276673911
 10
0.6251687673
 20
-2.4296294723
 10
0.6269813566
 20
-2.4318344779
 10
0.6285697081
 20
-2.4343010943
 10
0.6299151352
 20
-2.4370106351
 10
0.6310363245
 20
-2.4399631002
 10
0.6319145894
 20
-2.4431584897
 10
0.63254993
 20
-2.4465968035
 10
0.6329236598
 20
-2.4502593551
 10
0.6330544652
 20
-2.4541835176
  0
LWPOLYLINE
  5
9F
330
1F
100
AcDbEntity
  8
0
  6
Continuous
 62
     7
100
AcDbPolyline
 90
       64
 70
   128
 43
0.0
 10
0.6175070532
 20
-2.4545572474
 10
0.6174512477
 20
-2.4521280039
 10
0.6172643828
 20
-2.4498482524
 10
0.6169840855
 20
-2.4477179927
 10
0.6165729827
 20
-2.4457559115
 10
0.6160310746
 20
-2.4439433222
 10
0.615395734
 20
-2.4422989112
 10
0.614629588
 20
-2.4408039922
 10
0.6137513231
 20
-2.439458565
 10
0.6127609392
 20
-2.4382626298
 10
0.6116584364
 20
-2.437234873
 10
0.6104438147
 20
-2.4363752945
 10
0.609117074
 20
-2.435665208
 10
0.6076782144
 20
-2.4351046133
 10
0.6061272359
 20
-2.4347121971
 10
0.6044641385
 20
-2.4344692727
 10
0.6026889221
 20
-2.4343945268
 10
0.6026889221
 20
-2.4343945268
 10
0.6007455274
 20
-2.4344879592
 10
0.5989516245
 20
-2.434786943
 10
0.5973072136
 20
-2.4352914782
 10
0.5958122945
 20
-2.4359828783
 10
0.5944481809
 20
-2.4368424567
 10
0.5932335592
 20
-2.4378702135
 10
0.5921123699
 20
-2.4390287758
 10
0.5911406725
 20
-2.4403555165
 10
0.5902810941
 20
-2.441794376
 10
0.589552321
 20
-2.4433453545
 10
0.5889356669
 20
-2.4450271385
 10
0.5884498182
 20
-2.4468210413
 10
0.5878144776
 20
-2.4506330849
 10
0.5876089263
 20
-2.4546880528
 10
0.5876089263
 20
-2.4546880528
 10
0.5876649857
 20
-2.4571359827
 10
0.5878705371
 20
-2.4594344208
 10
0.5881695209
 20
-2.4615833669
 10
0.5886179966
 20
-2.4635641346
 10
0.5891785913
 20
-2.4653954104
 10
0.5898886778
 20
-2.4670585079
 10
0.5906921968
 20
-2.4685721134
 10
0.5916452077
 20
-2.469936227
 10
0.592691651
 20
-2.4711321623
 10
0.5938502133
 20
-2.4721786056
 10
0.5950835215
 20
-2.4730568706
 10
0.5964289486
 20
-2.4737669571
 10
0.5978491217
 20
-2.4743275517
 10
0.5993627273
 20
-2.4747386545
 10
0.6009884517
 20
-2.4749815788
 10
0.6026889221
 20
-2.4750563248
 10
0.6026889221
 20
-2.4750563248
 10
0.6045575709
 20
-2.4749628923
 10
0.6062767278
 20
-2.4746639085
 10
0.6078837658
 20
-2.4741780598
 10
0.6093599984
 20
-2.4735053463
 10
0.6107054255
 20
-2.4726457678
 10
0.6119387337
 20
-2.4716366975
 10
0.6130038635
 20
-2.4704781352
 10
0.6139568744
 20
-2.469170081
 10
0.6147977664
 20
-2.4677312215
 10
0.6155078529
 20
-2.4661615565
 10
0.616124507
 20
-2.464461086
 10
0.6166103557
 20
-2.4626484967
 10
0.6172830693
 20
-2.4587430207
 10
0.6175073072
 20
-2.4545572474
  0
LWPOLYLINE
  5
A0
330
1F
100
AcDbEntity
  8
0
  6
Continuous
 62
     7
100
AcDbPolyline
 90
       58
 70
   128
 43
0.0
 10
0.6844795595
 20
-2.479428963
 10
0.6828165829
 20
-2.4834652444
 10
0.6811161125
 20
-2.4872586015
 10
0.6793595826
 20
-2.4908277207
 10
0.6775656798
 20
-2.4941539156
 10
0.6757157174
 20
-2.4972184996
 10
0.6737723227
 20
-2.5000214728
 10
0.671754182
 20
-2.5025441487
 10
0.6696239223
 20
-2.5048239002
 10
0.6674002303
 20
-2.5068233545
 10
0.6650457328
 20
-2.5085425114
 10
0.6625604299
 20
-2.5100187439
 10
0.659963008
 20
-2.5112146792
 10
0.6572347808
 20
-2.5121303171
 10
0.6543383751
 20
-2.5128030306
 10
0.6512737911
 20
-2.5131954469
 10
0.6480597151
 20
-2.5133262523
 10
0.6480597151
 20
-2.5133262523
 10
0.6464153042
 20
-2.5132888793
 10
0.6446214013
 20
-2.5131580739
 10
0.6427527525
 20
-2.5129525225
 10
0.6408280442
 20
-2.5126722252
 10
0.6408280442
 20
-2.5126722252
 10
0.6408280442
 20
-2.4989750295
 10
0.6408280442
 20
-2.4989750295
 10
0.6416315632
 20
-2.4991805809
 10
0.6425472011
 20
-2.4994235052
 10
0.643537585
 20
-2.4996477431
 10
0.6445840283
 20
-2.4998159214
 10
0.6456678447
 20
-2.4999467269
 10
0.646751661
 20
-2.5000775323
 10
0.6478167908
 20
-2.5001522782
 10
0.6488071746
 20
-2.5001709647
 10
0.6488071746
 20
-2.5001709647
 10
0.651348537
 20
-2.4999280404
 10
0.653684348
 20
-2.4991992673
 10
0.6558519806
 20
-2.4980220186
 10
0.6578514349
 20
-2.4964710401
 10
0.6596827107
 20
-2.4945650183
 10
0.6613458081
 20
-2.4923226397
 10
0.6628220407
 20
-2.4897812774
 10
0.6641114084
 20
-2.4870156771
 10
0.6641114084
 20
-2.4870156771
 10
0.6384361738
 20
-2.4224351744
 10
0.6384361738
 20
-2.4224351744
 10
0.6555903698
 20
-2.4224351744
 10
0.6555903698
 20
-2.4224351744
 10
0.6690820142
 20
-2.4596399721
 10
0.6690820142
 20
-2.4596399721
 10
0.6731182956
 20
-2.4708705514
 10
0.6731182956
 20
-2.4708705514
 10
0.6769490257
 20
-2.4595652262
 10
0.6769490257
 20
-2.4595652262
 10
0.6900856268
 20
-2.4224351744
 10
0.6900856268
 20
-2.4224351744
 10
0.7066044822
 20
-2.4224351744
 10
0.7066044822
 20
-2.4224351744
 10
0.6844796803
 20
-2.479428963
  0
SPLINE
  5
A2
330
1F
100
AcDbEntity
  8
0
  6
Continuous
 62
     7
370
    15
100
AcDbSpline
210
0.0
220
0.0
230
1.0
 70
     8
 71
     3
 72
    38
 73
    34
 74
     0
 42
0.000000001
 43
0.00000001
 40
0.0
 40
0.0
 40
0.0
 40
0.0
 40
0.0624999999999999
 40
0.0624999999999999
 40
0.1249999999999998
 40
0.1249999999999998
 40
0.1874999999999998
 40
0.1874999999999998
 40
0.2499999999999997
 40
0.2499999999999997
 40
0.3124999999999996
 40
0.3124999999999996
 40
0.3749999999999995
 40
0.3749999999999995
 40
0.4374999999999994
 40
0.4374999999999994
 40
0.4999999999999994
 40
0.4999999999999994
 40
0.5624999999999993
 40
0.5624999999999993
 40
0.6249999999999993
 40
0.6249999999999993
 40
0.6874999999999994
 40
0.6874999999999994
 40
0.7499999999999996
 40
0.7499999999999996
 40
0.8124999999999998
 40
0.8124999999999998
 40
0.8749999999999999
 40
0.8749999999999999
 40
0.9375
 40
0.9375
 40
1.0
 40
1.0
 40
1.0
 40
1.0
 10
0.0
 20
-2.901315789473685
 30
0.0
 10
0.0979819633353047
 20
-2.867050438596491
 30
0.0
 10
0.1939296382384828
 20
-2.829164302421938
 30
0.0
 10
0.3768706054770221
 20
-2.746173319956641
 30
0.0
 10
0.4638686416042462
 20
-2.701071653097263
 30
0.0
 10
0.6255361835984313
 20
-2.604171761765228
 30
0.0
 10
0.7002104332572544
 20
-2.552376716723932
 30
0.0
 10
0.8352161112937059
 20
-2.443009771751789
 30
0.0
 10
0.8955522834631966
 20
-2.385441051252303
 30
0.0
 10
1.001085058415687
 20
-2.265748625367487
 30
0.0
 10
1.04628640499055
 20
-2.203628099413518
 30
0.0
 10
1.12182800980825
 20
-2.076260716962599
 30
0.0
 10
1.152173011842951
 20
-2.011017039897008
 30
0.0
 10
1.199213324038678
 20
-1.878943410964026
 30
0.0
 10
1.215913377991567
 20
-1.812116638527993
 30
0.0
 10
1.237665792130025
 20
-1.678432893052789
 30
0.0
 10
1.242722896107457
 20
-1.611579099444979
 30
0.0
 10
1.243839696293491
 20
-1.479318021341538
 30
0.0
 10
1.239904136293954
 20
-1.413913916277269
 30
0.0
 10
1.22619186866079
 20
-1.285854177552052
 30
0.0
 10
1.216419904819026
 20
-1.223201723322463
 30
0.0
 10
1.19455475001652
 20
-1.101677118192733
 30
0.0
 10
1.182466302847642
 20
-1.042808146723953
 30
0.0
 10
1.159709448530527
 20
-0.9295168257361207
 30
0.0
 10
1.149045785174153
 20
-0.8750976556484309
 30
0.0
 10
1.132958798490284
 20
-0.7709113597963859
 30
0.0
 10
1.127540218954652
 20
-0.7211474134633922
 30
0.0
 10
1.125700419033252
 20
-0.6259207083068362
 30
0.0
 10
1.129283942439347
 20
-0.5804611289146349
 30
0.0
 10
1.148999772879256
 20
-0.4928406386974165
 30
0.0
 10
1.165136823704931
 20
-0.4506829073037608
 30
0.0
 10
1.213163225062847
 20
-0.3679165490722118
 30
0.0
 10
1.24505731938695
 20
-0.3273111016656802
 30
0.0
 10
1.286184210526315
 20
-0.2861842105263147
 30
0.0
  0
SPLINE
  5
A3
330
1F
100
AcDbEntity
  8
0
  6
Continuous
 62
     7
370
    15
100
AcDbSpline
210
0.0
220
0.0
230
1.0
 70
     8
 71
     3
 72
    38
 73
    34
 74
     0
 42
0.000000001
 43
0.00000001
 40
0.0
 40
0.0
 40
0.0
 40
0.0
 40
0.0625000000000001
 40
0.0625000000000001
 40
0.1250000000000002
 40
0.1250000000000002
 40
0.1875000000000004
 40
0.1875000000000004
 40
0.2500000000000005
 40
0.2500000000000005
 40
0.3125000000000006
 40
0.3125000000000006
 40
0.3750000000000008
 40
0.3750000000000008
 40
0.4375000000000008
 40
0.4375000000000008
 40
0.5000000000000007
 40
0.5000000000000007
 40
0.5625000000000007
 40
0.5625000000000007
 40
0.6250000000000006
 40
0.6250000000000006
 40
0.6875000000000004
 40
0.6875000000000004
 40
0.7500000000000003
 40
0.7500000000000003
 40
0.8125000000000003
 40
0.8125000000000003
 40
0.8750000000000002
 40
0.8750000000000002
 40
0.9375000000000001
 40
0.9375000000000001
 40
1.0
 40
1.0
 40
1.0
 40
1.0
 10
-1.286184210526315
 20
-0.2861842105263147
 30
0.0
 10
-1.24505731938695
 20
-0.3273111016656799
 30
0.0
 10
-1.213163225062847
 20
-0.3679165490722119
 30
0.0
 10
-1.165136823704931
 20
-0.4506829073037606
 30
0.0
 10
-1.148999772879256
 20
-0.4928406386974165
 30
0.0
 10
-1.129283942439347
 20
-0.5804611289146349
 30
0.0
 10
-1.125700419033252
 20
-0.6259207083068362
 30
0.0
 10
-1.127540218954652
 20
-0.7211474134633925
 30
0.0
 10
-1.132958798490284
 20
-0.7709113597963859
 30
0.0
 10
-1.149045785174153
 20
-0.8750976556484307
 30
0.0
 10
-1.159709448530528
 20
-0.9295168257361208
 30
0.0
 10
-1.182466302847642
 20
-1.042808146723953
 30
0.0
 10
-1.19455475001652
 20
-1.101677118192733
 30
0.0
 10
-1.216419904819026
 20
-1.223201723322463
 30
0.0
 10
-1.226191868660791
 20
-1.285854177552052
 30
0.0
 10
-1.239904136293954
 20
-1.41391391627727
 30
0.0
 10
-1.243839696293491
 20
-1.479318021341538
 30
0.0
 10
-1.242722896107457
 20
-1.611579099444978
 30
0.0
 10
-1.237665792130025
 20
-1.678432893052789
 30
0.0
 10
-1.215913377991567
 20
-1.812116638527993
 30
0.0
 10
-1.199213324038678
 20
-1.878943410964026
 30
0.0
 10
-1.152173011842951
 20
-2.011017039897008
 30
0.0
 10
-1.12182800980825
 20
-2.076260716962599
 30
0.0
 10
-1.04628640499055
 20
-2.203628099413518
 30
0.0
 10
-1.001085058415687
 20
-2.265748625367487
 30
0.0
 10
-0.8955522834631966
 20
-2.385441051252303
 30
0.0
 10
-0.8352161112937061
 20
-2.443009771751789
 30
0.0
 10
-0.7002104332572544
 20
-2.552376716723932
 30
0.0
 10
-0.625536183598431
 20
-2.604171761765229
 30
0.0
 10
-0.4638686416042465
 20
-2.701071653097264
 30
0.0
 10
-0.3768706054770221
 20
-2.746173319956642
 30
0.0
 10
-0.1939296382384829
 20
-2.829164302421937
 30
0.0
 10
-0.0979819633353046
 20
-2.867050438596491
 30
0.0
 10
0.0000000000000005
 20
-2.901315789473685
 30
0.0
  0
SPLINE
  5
A5
330
1F
100
AcDbEntity
  8
0
  6
Continuous
 62
     7
370
    15
100
AcDbSpline
210
0.0
220
0.0
230
1.0
 70
     8
 71
     3
 72
     8
 73
     4
 74
     0
 42
0.000000001
 43
0.00000001
 40
0.0
 40
0.0
 40
0.0
 40
0.0
 40
1.0
 40
1.0
 40
1.0
 40
1.0
 10
0.0
 20
0.0
 30
0.0
 10
-0.381687364478612
 20
-0.1359649122807018
 30
0.0
 10
-0.7150206978119453
 20
-0.1359649122807018
 30
0.0
 10
-0.9999999999999999
 20
0.0
 30
0.0
  0
SPLINE
  5
A6
330
1F
100
AcDbEntity
  8
0
  6
Continuous
 62
     7
370
    15
100
AcDbSpline
210
0.0
220
0.0
230
1.0
 70
     8
 71
     3
 72
     8
 73
     4
 74
     0
 42
0.000000001
 43
0.00000001
 40
0.0
 40
0.0
 40
0.0
 40
0.0
 40
1.0
 40
1.0
 40
1.0
 40
1.0
 10
0.9999999999999999
 20
0.0
 30
0.0
 10
0.7150206978119453
 20
-0.1359649122807018
 30
0.0
 10
0.381687364478612
 20
-0.1359649122807018
 30
0.0
 10
0.0
 20
0.0
 30
0.0
  0
LINE
  5
A7
330
1F
100
AcDbEntity
  8
0
  6
Continuous
 62
     7
370
    15
100
AcDbLine
 10
1.2861842105
 20
-0.2861842105
 30
0.0
 11
1.0
 21
0.0
 31
0.0
  0
LINE
  5
A8
330
1F
100
AcDbEntity
  8
0
  6
Continuous
 62
     7
370
    15
100
AcDbLine
 10
-1.0
 20
0.0
 30
0.0
 11
-1.2861842105
 21
-0.2861842105
 31
0.0
  0
MTEXT
  5
AA
330
1F
100
AcDbEntity
  8
0
  6
Continuous
 62
     7
100
AcDbMText
 10
-1.2861842105
 20
-2.9414561986
 30
0.0
 40
0.1903
 41
0.0
 71
     1
 72
     1
  1
SolidWorks Educational Edition.
  7
SLDTEXTSTYLE0
 73
     1
 44
1.0
  0
MTEXT
  5
AB
330
1F
100
AcDbEntity
  8
0
  6
Continuous
 62
     7
100
AcDbMText
 10
-1.2861842105
 20
-3.2269061986
 30
0.0
 40
0.1903
 41
0.0
 71
     1
 72
     1
  1
For Instructional Use Only.
  7
SLDTEXTSTYLE0
 73
     1
 44
1.0
  0
ENDSEC
  0
SECTION
  2
OBJECTS
  0
DICTIONARY
  5
C
330
0
100
AcDbDictionary
281
     1
  3
ACAD_GROUP
350
D
  3
ACAD_LAYOUT
350
1A
  3
ACAD_MLINESTYLE
350
17
  3
ACAD_PLOTSETTINGS
350
19
  3
ACAD_PLOTSTYLENAME
350
E
  3
ACAD_SCALELIST
350
47
  0
DICTIONARY
  5
D
102
{ACAD_REACTORS
330
C
102
}
330
C
100
AcDbDictionary
281
     1
  0
DICTIONARY
  5
1A
102
{ACAD_REACTORS
330
C
102
}
330
C
100
AcDbDictionary
281
     1
  3
Layout1
350
1E
  3
Layout2
350
26
  3
Model
350
22
  0
DICTIONARY
  5
17
102
{ACAD_REACTORS
330
C
102
}
330
C
100
AcDbDictionary
281
     1
  3
Standard
350
18
  0
DICTIONARY
  5
19
102
{ACAD_REACTORS
330
C
102
}
330
C
100
AcDbDictionary
281
     1
  0
ACDBDICTIONARYWDFLT
  5
E
102
{ACAD_REACTORS
330
C
102
}
330
C
100
AcDbDictionary
281
     1
  3
Normal
350
F
100
AcDbDictionaryWithDefault
340
F
  0
DICTIONARY
  5
47
102
{ACAD_REACTORS
330
C
102
}
330
C
100
AcDbDictionary
281
     1
  3
A0
350
48
  3
A1
350
49
  3
A2
350
4A
  3
A3
350
4B
  3
A4
350
4C
  3
A5
350
4D
  3
A6
350
4E
  3
A7
350
4F
  3
A8
350
50
  3
A9
350
51
  3
B0
350
52
  3
B1
350
53
  3
B2
350
54
  3
B3
350
55
  3
B4
350
56
  3
B5
350
57
  3
B6
350
58
  3
B7
350
59
  3
B8
350
5A
  3
B9
350
5B
  3
C0
350
5C
  3
C1
350
5D
  3
C2
350
5E
  3
C3
350
5F
  3
C4
350
60
  3
C5
350
61
  3
C6
350
62
  3
C7
350
63
  3
C8
350
64
  3
C9
350
65
  3
D0
350
66
  3
D1
350
67
  3
D2
350
68
  0
LAYOUT
  5
1E
102
{ACAD_REACTORS
330
1A
102
}
330
1A
100
AcDbPlotSettings
  1

  2
none_device
  4

  6

 40
0.0
 41
0.0
 42
0.0
 43
0.0
 44
0.0
 45
0.0
 46
0.0
 47
0.0
 48
0.0
 49
0.0
140
0.0
141
0.0
142
1.0
143
1.0
 70
   688
 72
     0
 73
     0
 74
     5
  7

 75
    16
147
1.0
148
0.0
149
0.0
100
AcDbLayout
  1
Layout1
 70
     1
 71
     1
 10
0.0
 20
0.0
 11
12.0
 21
9.0
 12
0.0
 22
0.0
 32
0.0
 14
1.0000000000E+20
 24
1.0000000000E+20
 34
1.0000000000E+20
 15
-1.0000000000E+20
 25
-1.0000000000E+20
 35
-1.0000000000E+20
146
0.0
 13
0.0
 23
0.0
 33
0.0
 16
1.0
 26
0.0
 36
0.0
 17
0.0
 27
1.0
 37
0.0
 76
     0
330
1B
  0
LAYOUT
  5
26
102
{ACAD_REACTORS
330
1A
102
}
330
1A
100
AcDbPlotSettings
  1

  2
none_device
  4

  6

 40
0.0
 41
0.0
 42
0.0
 43
0.0
 44
0.0
 45
0.0
 46
0.0
 47
0.0
 48
0.0
 49
0.0
140
0.0
141
0.0
142
1.0
143
1.0
 70
   688
 72
     0
 73
     0
 74
     5
  7

 75
    16
147
1.0
148
0.0
149
0.0
100
AcDbLayout
  1
Layout2
 70
     1
 71
     2
 10
0.0
 20
0.0
 11
0.0
 21
0.0
 12
0.0
 22
0.0
 32
0.0
 14
0.0
 24
0.0
 34
0.0
 15
0.0
 25
0.0
 35
0.0
146
0.0
 13
0.0
 23
0.0
 33
0.0
 16
1.0
 26
0.0
 36
0.0
 17
0.0
 27
1.0
 37
0.0
 76
     0
330
23
  0
LAYOUT
  5
22
102
{ACAD_REACTORS
330
1A
102
}
330
1A
100
AcDbPlotSettings
  1

  2
none_device
  4
ANSI_A_(11.00_x_8.50_Inches)
  6

 40
6.35
 41
19.05
 42
6.35000508
 43
19.05000254
 44
279.4
 45
215.9
 46
133.34999746
 47
195.77049873
 48
0.0
 49
0.0
140
0.0
141
0.0
142
2.9004081633
143
1.0
 70
  1696
 72
     0
 73
     0
 74
     0
  7

 75
     0
147
0.5913241897
148
-39.4088153714
149
0.0
100
AcDbLayout
  1
Model
 70
     1
 71
     0
 10
0.0
 20
0.0
 11
12.0
 21
9.0
 12
0.0
 22
0.0
 32
0.0
 14
-1.2861842105
 24
-2.9013157895
 34
0.0
 15
1.2861842105
 25
0.0
 35
0.0
146
0.0
 13
0.0
 23
0.0
 33
0.0
 16
1.0
 26
0.0
 36
0.0
 17
0.0
 27
1.0
 37
0.0
 76
     0
330
1F
331
29
  0
MLINESTYLE
  5
18
102
{ACAD_REACTORS
330
17
102
}
330
17
100
AcDbMlineStyle
  2
Standard
 70
     0
  3

 62
   256
 51
90.0
 52
90.0
 71
     2
 49
0.5
 62
   256
  6
BYLAYER
 49
-0.5
 62
   256
  6
BYLAYER
  0
ACDBPLACEHOLDER
  5
F
102
{ACAD_REACTORS
330
E
102
}
330
E
  0
SCALE
  5
48
102
{ACAD_REACTORS
330
47
102
}
330
47
100
AcDbScale
 70
     0
300
1:1
140
1.0
141
1.0
290
     1
  0
SCALE
  5
49
102
{ACAD_REACTORS
330
47
102
}
330
47
100
AcDbScale
 70
     0
300
1:2
140
1.0
141
2.0
290
     0
  0
SCALE
  5
4A
102
{ACAD_REACTORS
330
47
102
}
330
47
100
AcDbScale
 70
     0
300
1:4
140
1.0
141
4.0
290
     0
  0
SCALE
  5
4B
102
{ACAD_REACTORS
330
47
102
}
330
47
100
AcDbScale
 70
     0
300
1:5
140
1.0
141
5.0
290
     0
  0
SCALE
  5
4C
102
{ACAD_REACTORS
330
47
102
}
330
47
100
AcDbScale
 70
     0
300
1:8
140
1.0
141
8.0
290
     0
  0
SCALE
  5
4D
102
{ACAD_REACTORS
330
47
102
}
330
47
100
AcDbScale
 70
     0
300
1:10
140
1.0
141
10.0
290
     0
  0
SCALE
  5
4E
102
{ACAD_REACTORS
330
47
102
}
330
47
100
AcDbScale
 70
     0
300
1:16
140
1.0
141
16.0
290
     0
  0
SCALE
  5
4F
102
{ACAD_REACTORS
330
47
102
}
330
47
100
AcDbScale
 70
     0
300
1:20
140
1.0
141
20.0
290
     0
  0
SCALE
  5
50
102
{ACAD_REACTORS
330
47
102
}
330
47
100
AcDbScale
 70
     0
300
1:30
140
1.0
141
30.0
290
     0
  0
SCALE
  5
51
102
{ACAD_REACTORS
330
47
102
}
330
47
100
AcDbScale
 70
     0
300
1:40
140
1.0
141
40.0
290
     0
  0
SCALE
  5
52
102
{ACAD_REACTORS
330
47
102
}
330
47
100
AcDbScale
 70
     0
300
1:50
140
1.0
141
50.0
290
     0
  0
SCALE
  5
53
102
{ACAD_REACTORS
330
47
102
}
330
47
100
AcDbScale
 70
     0
300
1:100
140
1.0
141
100.0
290
     0
  0
SCALE
  5
54
102
{ACAD_REACTORS
330
47
102
}
330
47
100
AcDbScale
 70
     0
300
2:1
140
2.0
141
1.0
290
     0
  0
SCALE
  5
55
102
{ACAD_REACTORS
330
47
102
}
330
47
100
AcDbScale
 70
     0
300
4:1
140
4.0
141
1.0
290
     0
  0
SCALE
  5
56
102
{ACAD_REACTORS
330
47
102
}
330
47
100
AcDbScale
 70
     0
300
8:1
140
8.0
141
1.0
290
     0
  0
SCALE
  5
57
102
{ACAD_REACTORS
330
47
102
}
330
47
100
AcDbScale
 70
     0
300
10:1
140
10.0
141
1.0
290
     0
  0
SCALE
  5
58
102
{ACAD_REACTORS
330
47
102
}
330
47
100
AcDbScale
 70
     0
300
100:1
140
100.0
141
1.0
290
     0
  0
SCALE
  5
59
102
{ACAD_REACTORS
330
47
102
}
330
47
100
AcDbScale
 70
     0
300
1/128" = 1'-0"
140
0.0078125
141
12.0
290
     0
  0
SCALE
  5
5A
102
{ACAD_REACTORS
330
47
102
}
330
47
100
AcDbScale
 70
     0
300
1/64" = 1'-0"
140
0.015625
141
12.0
290
     0
  0
SCALE
  5
5B
102
{ACAD_REACTORS
330
47
102
}
330
47
100
AcDbScale
 70
     0
300
1/32" = 1'-0"
140
0.03125
141
12.0
290
     0
  0
SCALE
  5
5C
102
{ACAD_REACTORS
330
47
102
}
330
47
100
AcDbScale
 70
     0
300
1/16" = 1'-0"
140
0.0625
141
12.0
290
     0
  0
SCALE
  5
5D
102
{ACAD_REACTORS
330
47
102
}
330
47
100
AcDbScale
 70
     0
300
3/32" = 1'-0"
140
0.09375
141
12.0
290
     0
  0
SCALE
  5
5E
102
{ACAD_REACTORS
330
47
102
}
330
47
100
AcDbScale
 70
     0
300
1/8" = 1'-0"
140
0.125
141
12.0
290
     0
  0
SCALE
  5
5F
102
{ACAD_REACTORS
330
47
102
}
330
47
100
AcDbScale
 70
     0
300
3/16" = 1'-0"
140
0.1875
141
12.0
290
     0
  0
SCALE
  5
60
102
{ACAD_REACTORS
330
47
102
}
330
47
100
AcDbScale
 70
     0
300
1/4" = 1'-0"
140
0.25
141
12.0
290
     0
  0
SCALE
  5
61
102
{ACAD_REACTORS
330
47
102
}
330
47
100
AcDbScale
 70
     0
300
3/8" = 1'-0"
140
0.375
141
12.0
290
     0
  0
SCALE
  5
62
102
{ACAD_REACTORS
330
47
102
}
330
47
100
AcDbScale
 70
     0
300
1/2" = 1'-0"
140
0.5
141
12.0
290
     0
  0
SCALE
  5
63
102
{ACAD_REACTORS
330
47
102
}
330
47
100
AcDbScale
 70
     0
300
3/4" = 1'-0"
140
0.75
141
12.0
290
     0
  0
SCALE
  5
64
102
{ACAD_REACTORS
330
47
102
}
330
47
100
AcDbScale
 70
     0
300
1" = 1'-0"
140
1.0
141
12.0
290
     0
  0
SCALE
  5
65
102
{ACAD_REACTORS
330
47
102
}
330
47
100
AcDbScale
 70
     0
300
1-1/2" = 1'-0"
140
1.5
141
12.0
290
     0
  0
SCALE
  5
66
102
{ACAD_REACTORS
330
47
102
}
330
47
100
AcDbScale
 70
     0
300
3" = 1'-0"
140
3.0
141
12.0
290
     0
  0
SCALE
  5
67
102
{ACAD_REACTORS
330
47
102
}
330
47
100
AcDbScale
 70
     0
300
6" = 1'-0"
140
6.0
141
12.0
290
     0
  0
SCALE
  5
68
102
{ACAD_REACTORS
330
47
102
}
330
47
100
AcDbScale
 70
     0
300
1'-0" = 1'-0"
140
12.0
141
12.0
290
     0
  0
ENDSEC
  0
EOF
